<svg width="377" height="442" viewBox="0 0 377 442" fill="none" xmlns="http://www.w3.org/2000/svg">
<g filter="url(#filter0_f_2_3089)">
<path fill-rule="evenodd" clip-rule="evenodd" d="M130.701 16.9134C147.832 7.41383 167.575 2 188.591 2C209.606 2 229.349 7.41383 246.48 16.9134L259.014 4.46939C262.33 1.17687 267.707 1.17687 271.023 4.46939C274.34 7.76191 274.34 13.1001 271.023 16.3927L260.962 26.3817C289.247 47.9589 307.478 81.8828 307.478 120.034H69.7026C69.7026 81.8828 87.9341 47.9589 116.219 26.3817L106.158 16.3927C102.842 13.1001 102.842 7.76191 106.158 4.46939C109.474 1.17687 114.851 1.17687 118.167 4.46939L130.701 16.9134ZM154.623 69.4482C154.623 78.7609 147.019 86.3103 137.639 86.3103C128.259 86.3103 120.655 78.7609 120.655 69.4482C120.655 60.1356 128.259 52.5862 137.639 52.5862C147.019 52.5862 154.623 60.1356 154.623 69.4482ZM239.543 86.3103C248.923 86.3103 256.527 78.7609 256.527 69.4482C256.527 60.1356 248.923 52.5862 239.543 52.5862C230.163 52.5862 222.559 60.1356 222.559 69.4482C222.559 78.7609 230.163 86.3103 239.543 86.3103Z" stroke="#FFF" stroke-width="1.37"/>
<path d="M1.76669 162.189C1.76669 148.221 13.1727 136.896 27.2427 136.896C41.3127 136.896 52.7187 148.221 52.7187 162.189V263.362C52.7187 277.331 41.3127 288.655 27.2427 288.655C13.1727 288.655 1.76669 277.331 1.76669 263.362V162.189Z" stroke="#FFF" stroke-width="1.37"/>
<path d="M120.655 356.103V415.12C120.655 429.089 132.061 440.413 146.131 440.413C160.201 440.413 171.607 429.089 171.607 415.12V356.103H205.575V415.12C205.575 429.089 216.981 440.413 231.051 440.413C245.121 440.413 256.527 429.089 256.527 415.12V356.103H273.51C292.27 356.103 307.478 341.004 307.478 322.379V136.896H69.7026V322.379C69.7026 341.004 84.9106 356.103 103.671 356.103H120.655Z" stroke="#FFF" stroke-width="1.37"/>
<path d="M324.462 162.189C324.462 148.221 335.868 136.896 349.938 136.896C364.008 136.896 375.414 148.221 375.414 162.189V263.362C375.414 277.331 364.008 288.655 349.938 288.655C335.868 288.655 324.462 277.331 324.462 263.362V162.189Z" stroke="#FFF" stroke-width="1.37"/>
</g>
<defs>
<filter id="filter0_f_2_3089" x="0.626516" y="0.86025" width="375.928" height="440.694" filterUnits="userSpaceOnUse" color-interpolation-filters="sRGB">
<feFlood flood-opacity="0" result="BackgroundImageFix"/>
<feBlend mode="normal" in="SourceGraphic" in2="BackgroundImageFix" result="shape"/>
<feGaussianBlur stdDeviation="0.22759" result="effect1_foregroundBlur_2_3089"/>
</filter>
</defs>
</svg>
