<svg width="391" height="479" viewBox="0 0 391 479" fill="none" xmlns="http://www.w3.org/2000/svg">
<g filter="url(#filter0_f_2_3084)">
<path fill-rule="evenodd" clip-rule="evenodd" d="M263.976 76.5564C282.154 56.7976 292.165 29.6624 290.585 2C265.82 2 237.104 16.4899 218.926 37.8294C204.7 55.4802 189.42 83.1426 194.952 110.805C220.507 113.966 248.169 97.8959 263.976 76.5564ZM288.213 116.864C249.75 116.864 215.765 138.204 197.587 138.204C178.618 138.204 150.956 115.811 119.869 116.864C79.2975 117.655 42.1513 141.628 21.3391 176.93C6.58586 202.222 0.78966 231.992 1.31697 262.289C2.10703 319.457 24.5 378.997 50.845 416.934C71.1311 445.913 94.0508 477 126.455 477C155.698 477 166.5 457.505 204.7 457.505C240.265 457.505 251.331 477 282.154 477C314.558 477 335.898 447.493 355.13 418.251C379.367 384.266 387.534 351.862 388.588 350.544C387.534 350.544 326.414 325.78 324.043 255.175C324.043 193.264 374.362 165.339 376.469 164.022C349.07 121.87 304.811 116.864 288.213 116.864Z" stroke="#FFF" stroke-width="1.37"/>
</g>
<defs>
<filter id="filter0_f_2_3084" x="0.143942" y="0.86025" width="390.325" height="477.279" filterUnits="userSpaceOnUse" color-interpolation-filters="sRGB">
<feFlood flood-opacity="0" result="BackgroundImageFix"/>
<feBlend mode="normal" in="SourceGraphic" in2="BackgroundImageFix" result="shape"/>
<feGaussianBlur stdDeviation="0.22759" result="effect1_foregroundBlur_2_3084"/>
</filter>
</defs>
</svg>
