<svg width="2560" height="1656" viewBox="0 0 2560 1656" fill="none" xmlns="http://www.w3.org/2000/svg">
<g opacity="0.7" filter="url(#filter0_f_2_2694)">
<path d="M1280 1650C1305 1650 1325.27 1281.98 1325.27 828C1325.27 374.022 1305 6 1280 6C1255 6 1234.73 374.022 1234.73 828C1234.73 1281.98 1255 1650 1280 1650Z" stroke="url(#paint0_linear_2_2694)" stroke-width="2" stroke-miterlimit="10"/>
<path d="M1280 1650C1307.31 1650 1329.44 1281.98 1329.44 828C1329.44 374.022 1307.31 6 1280 6C1252.69 6 1230.55 374.022 1230.55 828C1230.55 1281.98 1252.69 1650 1280 1650Z" stroke="url(#paint1_linear_2_2694)" stroke-width="2" stroke-miterlimit="10"/>
<path d="M1280 1650C1309.62 1650 1333.63 1281.98 1333.63 828C1333.63 374.022 1309.62 6 1280 6C1250.39 6 1226.38 374.022 1226.38 828C1226.38 1281.98 1250.39 1650 1280 1650Z" stroke="url(#paint2_linear_2_2694)" stroke-width="2" stroke-miterlimit="10"/>
<path d="M1280 1650C1312.31 1650 1338.5 1281.98 1338.5 828C1338.5 374.022 1312.31 6 1280 6C1247.69 6 1221.5 374.022 1221.5 828C1221.5 1281.98 1247.69 1650 1280 1650Z" stroke="url(#paint3_linear_2_2694)" stroke-width="2" stroke-miterlimit="10"/>
<path d="M1280 1650C1315 1650 1343.37 1281.98 1343.37 828C1343.37 374.022 1315 6 1280 6C1245 6 1216.63 374.022 1216.63 828C1216.63 1281.98 1245 1650 1280 1650Z" stroke="url(#paint4_linear_2_2694)" stroke-width="2" stroke-miterlimit="10"/>
<path d="M1280 1650C1318.08 1650 1348.94 1281.98 1348.94 828C1348.94 374.022 1318.08 6 1280 6C1241.92 6 1211.05 374.022 1211.05 828C1211.05 1281.98 1241.92 1650 1280 1650Z" stroke="url(#paint5_linear_2_2694)" stroke-width="2" stroke-miterlimit="10"/>
<path d="M1280 1650C1321.54 1650 1355.21 1281.98 1355.21 828C1355.21 374.022 1321.54 6 1280 6C1238.46 6 1204.79 374.022 1204.79 828C1204.79 1281.98 1238.46 1650 1280 1650Z" stroke="url(#paint6_linear_2_2694)" stroke-width="2" stroke-miterlimit="10"/>
<path d="M1280 1650C1325 1650 1361.48 1281.98 1361.48 828C1361.48 374.022 1325 6 1280 6C1235 6 1198.52 374.022 1198.52 828C1198.52 1281.98 1235 1650 1280 1650Z" stroke="url(#paint7_linear_2_2694)" stroke-width="2" stroke-miterlimit="10"/>
<path d="M1280 1650C1328.85 1650 1368.44 1281.98 1368.44 828C1368.44 374.022 1328.85 6 1280 6C1231.15 6 1191.56 374.022 1191.56 828C1191.56 1281.98 1231.15 1650 1280 1650Z" stroke="url(#paint8_linear_2_2694)" stroke-width="2" stroke-miterlimit="10"/>
<path d="M1280 1650C1333.46 1650 1376.8 1281.98 1376.8 828C1376.8 374.022 1333.46 6 1280 6C1226.54 6 1183.2 374.022 1183.2 828C1183.2 1281.98 1226.54 1650 1280 1650Z" stroke="url(#paint9_linear_2_2694)" stroke-width="2" stroke-miterlimit="10"/>
<path d="M1280 1650C1338.08 1650 1385.16 1281.98 1385.16 828C1385.16 374.022 1338.08 6 1280 6C1221.92 6 1174.84 374.022 1174.84 828C1174.84 1281.98 1221.92 1650 1280 1650Z" stroke="url(#paint10_linear_2_2694)" stroke-width="2" stroke-miterlimit="10"/>
<path d="M1280 1650C1343.08 1650 1394.21 1281.98 1394.21 828C1394.21 374.022 1343.08 6 1280 6C1216.92 6 1165.79 374.022 1165.79 828C1165.79 1281.98 1216.92 1650 1280 1650Z" stroke="url(#paint11_linear_2_2694)" stroke-width="2" stroke-miterlimit="10"/>
<path d="M1280 1650C1348.46 1650 1403.96 1281.98 1403.96 828C1403.96 374.022 1348.46 6 1280 6C1211.54 6 1156.04 374.022 1156.04 828C1156.04 1281.98 1211.54 1650 1280 1650Z" stroke="url(#paint12_linear_2_2694)" stroke-width="2" stroke-miterlimit="10"/>
<path d="M1280 1650C1354.23 1650 1414.41 1281.98 1414.41 828C1414.41 374.022 1354.23 6 1280 6C1205.77 6 1145.59 374.022 1145.59 828C1145.59 1281.98 1205.77 1650 1280 1650Z" stroke="url(#paint13_linear_2_2694)" stroke-width="2" stroke-miterlimit="10"/>
<path d="M1280 1650C1360.77 1650 1426.25 1281.98 1426.25 828C1426.25 374.022 1360.77 6 1280 6C1199.23 6 1133.76 374.022 1133.76 828C1133.76 1281.98 1199.23 1650 1280 1650Z" stroke="url(#paint14_linear_2_2694)" stroke-width="2" stroke-miterlimit="10"/>
<path d="M1280 1650C1368.08 1650 1439.48 1281.98 1439.48 828C1439.48 374.022 1368.08 6 1280 6C1191.92 6 1120.52 374.022 1120.52 828C1120.52 1281.98 1191.92 1650 1280 1650Z" stroke="url(#paint15_linear_2_2694)" stroke-width="2" stroke-miterlimit="10"/>
<path d="M1280 1650C1375.39 1650 1452.71 1281.98 1452.71 828C1452.71 374.022 1375.39 6 1280 6C1184.62 6 1107.29 374.022 1107.29 828C1107.29 1281.98 1184.62 1650 1280 1650Z" stroke="url(#paint16_linear_2_2694)" stroke-width="2" stroke-miterlimit="10"/>
<path d="M1280 1650C1383.85 1650 1468.03 1281.98 1468.03 828C1468.03 374.022 1383.85 6 1280 6C1176.15 6 1091.97 374.022 1091.97 828C1091.97 1281.98 1176.15 1650 1280 1650Z" stroke="url(#paint17_linear_2_2694)" stroke-width="2" stroke-miterlimit="10"/>
<path d="M1280 1650C1392.69 1650 1484.05 1281.98 1484.05 828C1484.05 374.022 1392.69 6 1280 6C1167.31 6 1075.95 374.022 1075.95 828C1075.95 1281.98 1167.31 1650 1280 1650Z" stroke="url(#paint18_linear_2_2694)" stroke-width="2" stroke-miterlimit="10"/>
<path d="M1280 1650C1402.69 1650 1502.15 1281.98 1502.15 828C1502.15 374.022 1402.69 6 1280 6C1157.31 6 1057.84 374.022 1057.84 828C1057.84 1281.98 1157.31 1650 1280 1650Z" stroke="url(#paint19_linear_2_2694)" stroke-width="2" stroke-miterlimit="10"/>
<path d="M1280 1650C1413.46 1650 1521.66 1281.98 1521.66 828C1521.66 374.022 1413.46 6 1280 6C1146.54 6 1038.35 374.022 1038.35 828C1038.35 1281.98 1146.54 1650 1280 1650Z" stroke="url(#paint20_linear_2_2694)" stroke-width="2" stroke-miterlimit="10"/>
<path d="M1280 1650C1425 1650 1542.55 1281.98 1542.55 828C1542.55 374.022 1425 6 1280 6C1135 6 1017.45 374.022 1017.45 828C1017.45 1281.98 1135 1650 1280 1650Z" stroke="url(#paint21_linear_2_2694)" stroke-width="2" stroke-miterlimit="10"/>
<path d="M1280 1650C1437.69 1650 1565.53 1281.98 1565.53 828C1565.53 374.022 1437.69 6 1280 6C1122.31 6 994.472 374.022 994.472 828C994.472 1281.98 1122.31 1650 1280 1650Z" stroke="url(#paint22_linear_2_2694)" stroke-width="2" stroke-miterlimit="10"/>
<path d="M1280 1650C1451.15 1650 1589.9 1281.98 1589.9 828C1589.9 374.022 1451.15 6 1280 6C1108.84 6 970.097 374.022 970.097 828C970.097 1281.98 1108.84 1650 1280 1650Z" stroke="url(#paint23_linear_2_2694)" stroke-width="2" stroke-miterlimit="10"/>
<path d="M1280 1650C1466.15 1650 1617.06 1281.98 1617.06 828C1617.06 374.022 1466.15 6 1280 6C1093.85 6 942.938 374.022 942.938 828C942.938 1281.98 1093.85 1650 1280 1650Z" stroke="url(#paint24_linear_2_2694)" stroke-width="2" stroke-miterlimit="10"/>
<path d="M1280 1650C1482.31 1650 1646.31 1281.98 1646.31 828C1646.31 374.022 1482.31 6 1280 6C1077.69 6 913.688 374.022 913.688 828C913.688 1281.98 1077.69 1650 1280 1650Z" stroke="url(#paint25_linear_2_2694)" stroke-width="2" stroke-miterlimit="10"/>
<path d="M1280 1650C1500 1650 1678.35 1281.98 1678.35 828C1678.35 374.022 1500 6 1280 6C1060 6 881.654 374.022 881.654 828C881.654 1281.98 1060 1650 1280 1650Z" stroke="url(#paint26_linear_2_2694)" stroke-width="2" stroke-miterlimit="10"/>
<path d="M1280 1650C1519.23 1650 1713.17 1281.98 1713.17 828C1713.17 374.022 1519.23 6 1280 6C1040.77 6 846.834 374.022 846.834 828C846.834 1281.98 1040.77 1650 1280 1650Z" stroke="url(#paint27_linear_2_2694)" stroke-width="2" stroke-miterlimit="10"/>
<path d="M1280 1650C1540 1650 1750.77 1281.98 1750.77 828C1750.77 374.022 1540 6 1280 6C1020 6 809.228 374.022 809.228 828C809.228 1281.98 1020 1650 1280 1650Z" stroke="url(#paint28_linear_2_2694)" stroke-width="2" stroke-miterlimit="10"/>
<path d="M1280 1650C1562.31 1650 1791.16 1281.98 1791.16 828C1791.16 374.022 1562.31 6 1280 6C997.69 6 768.834 374.022 768.834 828C768.834 1281.98 997.69 1650 1280 1650Z" stroke="url(#paint29_linear_2_2694)" stroke-width="2" stroke-miterlimit="10"/>
<path d="M1280 1650C1586.93 1650 1835.74 1281.98 1835.74 828C1835.74 374.022 1586.93 6 1280 6C973.078 6 724.268 374.022 724.268 828C724.268 1281.98 973.078 1650 1280 1650Z" stroke="url(#paint30_linear_2_2694)" stroke-width="2" stroke-miterlimit="10"/>
<path d="M1280 1650C1613.85 1650 1884.48 1281.98 1884.48 828C1884.48 374.022 1613.85 6 1280 6C946.154 6 675.518 374.022 675.518 828C675.518 1281.98 946.154 1650 1280 1650Z" stroke="url(#paint31_linear_2_2694)" stroke-width="2" stroke-miterlimit="10"/>
<path d="M1280 1650C1642.69 1650 1936.71 1281.98 1936.71 828C1936.71 374.022 1642.69 6 1280 6C917.306 6 623.285 374.022 623.285 828C623.285 1281.98 917.306 1650 1280 1650Z" stroke="url(#paint32_linear_2_2694)" stroke-width="2" stroke-miterlimit="10"/>
<path d="M1280 1650C1674.23 1650 1993.82 1281.98 1993.82 828C1993.82 374.022 1674.23 6 1280 6C885.77 6 566.182 374.022 566.182 828C566.182 1281.98 885.77 1650 1280 1650Z" stroke="url(#paint33_linear_2_2694)" stroke-width="2" stroke-miterlimit="10"/>
<path d="M1280 1650C1708.46 1650 2055.8 1281.98 2055.8 828C2055.8 374.022 1708.46 6 1280 6C851.536 6 504.199 374.022 504.199 828C504.199 1281.98 851.536 1650 1280 1650Z" stroke="url(#paint34_linear_2_2694)" stroke-width="2" stroke-miterlimit="10"/>
<path d="M1280 1650C1745.77 1650 2123.35 1281.98 2123.35 828C2123.35 374.022 1745.77 6 1280 6C814.23 6 436.648 374.022 436.648 828C436.648 1281.98 814.23 1650 1280 1650Z" stroke="url(#paint35_linear_2_2694)" stroke-width="2" stroke-miterlimit="10"/>
<path d="M1280 1650C1786.15 1650 2196.47 1281.98 2196.47 828C2196.47 374.022 1786.15 6 1280 6C773.843 6 363.523 374.022 363.523 828C363.523 1281.98 773.843 1650 1280 1650Z" stroke="url(#paint36_linear_2_2694)" stroke-width="2" stroke-miterlimit="10"/>
<path d="M1280 1650C1830.38 1650 2276.56 1281.98 2276.56 828C2276.56 374.022 1830.38 6 1280 6C729.613 6 283.438 374.022 283.438 828C283.438 1281.98 729.613 1650 1280 1650Z" stroke="url(#paint37_linear_2_2694)" stroke-width="2" stroke-miterlimit="10"/>
<path d="M1280 1650C1878.08 1650 2362.92 1281.98 2362.92 828C2362.92 374.022 1878.08 6 1280 6C681.921 6 197.083 374.022 197.083 828C197.083 1281.98 681.921 1650 1280 1650Z" stroke="url(#paint38_linear_2_2694)" stroke-width="2" stroke-miterlimit="10"/>
<path d="M1280 1650C1930.39 1650 2457.63 1281.98 2457.63 828C2457.63 374.022 1930.39 6 1280 6C629.614 6 102.372 374.022 102.372 828C102.372 1281.98 629.614 1650 1280 1650Z" stroke="url(#paint39_linear_2_2694)" stroke-width="2" stroke-miterlimit="10"/>
<path d="M1280 1650C1986.92 1650 2560 1281.98 2560 828C2560 374.022 1986.92 6 1280 6C573.076 6 0 374.022 0 828C0 1281.98 573.076 1650 1280 1650Z" stroke="url(#paint40_linear_2_2694)" stroke-width="2" stroke-miterlimit="10"/>
<path d="M1280 857.07C1986.92 857.07 2560 844.055 2560 828C2560 811.946 1986.92 798.931 1280 798.931C573.076 798.931 0 811.946 0 828C0 844.055 573.076 857.07 1280 857.07Z" stroke="url(#paint41_linear_2_2694)" stroke-width="2" stroke-miterlimit="10"/>
<path d="M1280 859.753C1986.92 859.753 2560 845.537 2560 828C2560 810.463 1986.92 796.247 1280 796.247C573.076 796.247 0 810.463 0 828C0 845.537 573.076 859.753 1280 859.753Z" stroke="url(#paint42_linear_2_2694)" stroke-width="2" stroke-miterlimit="10"/>
<path d="M1280 862.436C1986.92 862.436 2560 847.019 2560 828C2560 808.981 1986.92 793.564 1280 793.564C573.076 793.564 0 808.981 0 828C0 847.019 573.076 862.436 1280 862.436Z" stroke="url(#paint43_linear_2_2694)" stroke-width="2" stroke-miterlimit="10"/>
<path d="M1280 865.566C1986.92 865.566 2560 848.747 2560 828C2560 807.252 1986.92 790.433 1280 790.433C573.076 790.433 0 807.252 0 828C0 848.747 573.076 865.566 1280 865.566Z" stroke="url(#paint44_linear_2_2694)" stroke-width="2" stroke-miterlimit="10"/>
<path d="M1280 868.697C1986.92 868.697 2560 850.477 2560 828C2560 805.523 1986.92 787.302 1280 787.302C573.076 787.302 0 805.523 0 828C0 850.477 573.076 868.697 1280 868.697Z" stroke="url(#paint45_linear_2_2694)" stroke-width="2" stroke-miterlimit="10"/>
<path d="M1280 872.275C1986.92 872.275 2560 852.452 2560 828C2560 803.547 1986.92 783.724 1280 783.724C573.076 783.724 0 803.547 0 828C0 852.452 573.076 872.275 1280 872.275Z" stroke="url(#paint46_linear_2_2694)" stroke-width="2" stroke-miterlimit="10"/>
<path d="M1280 876.3C1986.92 876.3 2560 854.676 2560 828C2560 801.324 1986.92 779.7 1280 779.7C573.076 779.7 0 801.324 0 828C0 854.676 573.076 876.3 1280 876.3Z" stroke="url(#paint47_linear_2_2694)" stroke-width="2" stroke-miterlimit="10"/>
<path d="M1280 880.325C1986.92 880.325 2560 856.898 2560 828C2560 799.101 1986.92 775.675 1280 775.675C573.076 775.675 0 799.101 0 828C0 856.898 573.076 880.325 1280 880.325Z" stroke="url(#paint48_linear_2_2694)" stroke-width="2" stroke-miterlimit="10"/>
<path d="M1280 884.798C1986.92 884.798 2560 859.368 2560 828C2560 796.632 1986.92 771.202 1280 771.202C573.076 771.202 0 796.632 0 828C0 859.368 573.076 884.798 1280 884.798Z" stroke="url(#paint49_linear_2_2694)" stroke-width="2" stroke-miterlimit="10"/>
<path d="M1280 890.164C1986.92 890.164 2560 862.332 2560 828C2560 793.667 1986.92 765.835 1280 765.835C573.076 765.835 0 793.667 0 828C0 862.332 573.076 890.164 1280 890.164Z" stroke="url(#paint50_linear_2_2694)" stroke-width="2" stroke-miterlimit="10"/>
<path d="M1280 895.531C1986.92 895.531 2560 865.296 2560 828C2560 790.704 1986.92 760.469 1280 760.469C573.076 760.469 0 790.704 0 828C0 865.296 573.076 895.531 1280 895.531Z" stroke="url(#paint51_linear_2_2694)" stroke-width="2" stroke-miterlimit="10"/>
<path d="M1280 901.345C1986.92 901.345 2560 868.507 2560 828C2560 787.493 1986.92 754.655 1280 754.655C573.076 754.655 0 787.493 0 828C0 868.507 573.076 901.345 1280 901.345Z" stroke="url(#paint52_linear_2_2694)" stroke-width="2" stroke-miterlimit="10"/>
<path d="M1280 907.606C1986.92 907.606 2560 871.965 2560 828C2560 784.035 1986.92 748.394 1280 748.394C573.076 748.394 0 784.035 0 828C0 871.965 573.076 907.606 1280 907.606Z" stroke="url(#paint53_linear_2_2694)" stroke-width="2" stroke-miterlimit="10"/>
<path d="M1280 914.314C1986.92 914.314 2560 875.67 2560 828C2560 780.33 1986.92 741.686 1280 741.686C573.076 741.686 0 780.33 0 828C0 875.67 573.076 914.314 1280 914.314Z" stroke="url(#paint54_linear_2_2694)" stroke-width="2" stroke-miterlimit="10"/>
<path d="M1280 921.918C1986.92 921.918 2560 879.869 2560 828C2560 776.131 1986.92 734.083 1280 734.083C573.076 734.083 0 776.131 0 828C0 879.869 573.076 921.918 1280 921.918Z" stroke="url(#paint55_linear_2_2694)" stroke-width="2" stroke-miterlimit="10"/>
<path d="M1280 930.414C1986.92 930.414 2560 884.562 2560 828C2560 771.438 1986.92 725.585 1280 725.585C573.076 725.585 0 771.438 0 828C0 884.562 573.076 930.414 1280 930.414Z" stroke="url(#paint56_linear_2_2694)" stroke-width="2" stroke-miterlimit="10"/>
<path d="M1280 938.912C1986.92 938.912 2560 889.255 2560 828C2560 766.745 1986.92 717.088 1280 717.088C573.076 717.088 0 766.745 0 828C0 889.255 573.076 938.912 1280 938.912Z" stroke="url(#paint57_linear_2_2694)" stroke-width="2" stroke-miterlimit="10"/>
<path d="M1280 948.751C1986.92 948.751 2560 894.689 2560 828C2560 761.312 1986.92 707.25 1280 707.25C573.076 707.25 0 761.312 0 828C0 894.689 573.076 948.751 1280 948.751Z" stroke="url(#paint58_linear_2_2694)" stroke-width="2" stroke-miterlimit="10"/>
<path d="M1280 959.037C1986.92 959.037 2560 900.37 2560 828C2560 755.63 1986.92 696.963 1280 696.963C573.076 696.963 0 755.63 0 828C0 900.37 573.076 959.037 1280 959.037Z" stroke="url(#paint59_linear_2_2694)" stroke-width="2" stroke-miterlimit="10"/>
<path d="M1280 970.664C1986.92 970.664 2560 906.791 2560 828C2560 749.208 1986.92 685.335 1280 685.335C573.076 685.335 0 749.208 0 828C0 906.791 573.076 970.664 1280 970.664Z" stroke="url(#paint60_linear_2_2694)" stroke-width="2" stroke-miterlimit="10"/>
<path d="M1280 983.187C1986.92 983.187 2560 913.708 2560 828C2560 742.293 1986.92 672.813 1280 672.813C573.076 672.813 0 742.293 0 828C0 913.708 573.076 983.187 1280 983.187Z" stroke="url(#paint61_linear_2_2694)" stroke-width="2" stroke-miterlimit="10"/>
<path d="M1280 996.604C1986.92 996.604 2560 921.117 2560 828C2560 734.883 1986.92 659.396 1280 659.396C573.076 659.396 0 734.883 0 828C0 921.117 573.076 996.604 1280 996.604Z" stroke="url(#paint62_linear_2_2694)" stroke-width="2" stroke-miterlimit="10"/>
<path d="M1280 1011.36C1986.92 1011.36 2560 929.269 2560 828C2560 726.732 1986.92 644.638 1280 644.638C573.076 644.638 0 726.732 0 828C0 929.269 573.076 1011.36 1280 1011.36Z" stroke="url(#paint63_linear_2_2694)" stroke-width="2" stroke-miterlimit="10"/>
<path d="M1280 1027.02C1986.92 1027.02 2560 937.913 2560 828C2560 718.087 1986.92 628.985 1280 628.985C573.076 628.985 0 718.087 0 828C0 937.913 573.076 1027.02 1280 1027.02Z" stroke="url(#paint64_linear_2_2694)" stroke-width="2" stroke-miterlimit="10"/>
<path d="M1280 1044.46C1986.92 1044.46 2560 947.546 2560 828C2560 708.454 1986.92 611.543 1280 611.543C573.076 611.543 0 708.454 0 828C0 947.546 573.076 1044.46 1280 1044.46Z" stroke="url(#paint65_linear_2_2694)" stroke-width="2" stroke-miterlimit="10"/>
<path d="M1280 1063.24C1986.92 1063.24 2560 957.92 2560 828C2560 698.08 1986.92 592.759 1280 592.759C573.076 592.759 0 698.08 0 828C0 957.92 573.076 1063.24 1280 1063.24Z" stroke="url(#paint66_linear_2_2694)" stroke-width="2" stroke-miterlimit="10"/>
<path d="M1280 1083.81C1986.92 1083.81 2560 969.281 2560 828C2560 686.718 1986.92 572.187 1280 572.187C573.076 572.187 0 686.718 0 828C0 969.281 573.076 1083.81 1280 1083.81Z" stroke="url(#paint67_linear_2_2694)" stroke-width="2" stroke-miterlimit="10"/>
<path d="M1280 1106.17C1986.92 1106.17 2560 981.631 2560 828C2560 674.369 1986.92 549.826 1280 549.826C573.076 549.826 0 674.369 0 828C0 981.631 573.076 1106.17 1280 1106.17Z" stroke="url(#paint68_linear_2_2694)" stroke-width="2" stroke-miterlimit="10"/>
<path d="M1280 1130.32C1986.92 1130.32 2560 994.969 2560 828C2560 661.031 1986.92 525.676 1280 525.676C573.076 525.676 0 661.031 0 828C0 994.969 573.076 1130.32 1280 1130.32Z" stroke="url(#paint69_linear_2_2694)" stroke-width="2" stroke-miterlimit="10"/>
<path d="M1280 1156.26C1986.92 1156.26 2560 1009.29 2560 828C2560 646.705 1986.92 499.736 1280 499.736C573.076 499.736 0 646.705 0 828C0 1009.29 573.076 1156.26 1280 1156.26Z" stroke="url(#paint70_linear_2_2694)" stroke-width="2" stroke-miterlimit="10"/>
<path d="M1280 1184.89C1986.92 1184.89 2560 1025.1 2560 828C2560 630.897 1986.92 471.114 1280 471.114C573.076 471.114 0 630.897 0 828C0 1025.1 573.076 1184.89 1280 1184.89Z" stroke="url(#paint71_linear_2_2694)" stroke-width="2" stroke-miterlimit="10"/>
<path d="M1280 1216.19C1986.92 1216.19 2560 1042.39 2560 828C2560 613.608 1986.92 439.809 1280 439.809C573.076 439.809 0 613.608 0 828C0 1042.39 573.076 1216.19 1280 1216.19Z" stroke="url(#paint72_linear_2_2694)" stroke-width="2" stroke-miterlimit="10"/>
<path d="M1280 1249.73C1986.92 1249.73 2560 1060.92 2560 828C2560 595.083 1986.92 406.267 1280 406.267C573.076 406.267 0 595.083 0 828C0 1060.92 573.076 1249.73 1280 1249.73Z" stroke="url(#paint73_linear_2_2694)" stroke-width="2" stroke-miterlimit="10"/>
<path d="M1280 1286.41C1986.92 1286.41 2560 1081.17 2560 828C2560 574.83 1986.92 369.594 1280 369.594C573.076 369.594 0 574.83 0 828C0 1081.17 573.076 1286.41 1280 1286.41Z" stroke="url(#paint74_linear_2_2694)" stroke-width="2" stroke-miterlimit="10"/>
<path d="M1280 1326.21C1986.92 1326.21 2560 1103.15 2560 828C2560 552.847 1986.92 329.791 1280 329.791C573.076 329.791 0 552.847 0 828C0 1103.15 573.076 1326.21 1280 1326.21Z" stroke="url(#paint75_linear_2_2694)" stroke-width="2" stroke-miterlimit="10"/>
<path d="M1280 1369.59C1986.92 1369.59 2560 1127.11 2560 828C2560 528.888 1986.92 286.41 1280 286.41C573.076 286.41 0 528.888 0 828C0 1127.11 573.076 1369.59 1280 1369.59Z" stroke="url(#paint76_linear_2_2694)" stroke-width="2" stroke-miterlimit="10"/>
<path d="M1280 1416.55C1986.92 1416.55 2560 1153.05 2560 828C2560 502.954 1986.92 239.451 1280 239.451C573.076 239.451 0 502.954 0 828C0 1153.05 573.076 1416.55 1280 1416.55Z" stroke="url(#paint77_linear_2_2694)" stroke-width="2" stroke-miterlimit="10"/>
<path d="M1280 1467.98C1986.92 1467.98 2560 1181.45 2560 828C2560 474.549 1986.92 188.02 1280 188.02C573.076 188.02 0 474.549 0 828C0 1181.45 573.076 1467.98 1280 1467.98Z" stroke="url(#paint78_linear_2_2694)" stroke-width="2" stroke-miterlimit="10"/>
<path d="M1280 1523.44C1986.92 1523.44 2560 1212.08 2560 828C2560 443.922 1986.92 132.565 1280 132.565C573.076 132.565 0 443.922 0 828C0 1212.08 573.076 1523.44 1280 1523.44Z" stroke="url(#paint79_linear_2_2694)" stroke-width="2" stroke-miterlimit="10"/>
<path d="M1280 1584.26C1986.92 1584.26 2560 1245.67 2560 828C2560 410.33 1986.92 71.7419 1280 71.7419C573.076 71.7419 0 410.33 0 828C0 1245.67 573.076 1584.26 1280 1584.26Z" stroke="url(#paint80_linear_2_2694)" stroke-width="2" stroke-miterlimit="10"/>
<path d="M1280 1650C1986.92 1650 2560 1281.98 2560 828C2560 374.022 1986.92 6 1280 6C573.076 6 0 374.022 0 828C0 1281.98 573.076 1650 1280 1650Z" stroke="url(#paint81_linear_2_2694)" stroke-width="2" stroke-miterlimit="10"/>
</g>
<defs>
<filter id="filter0_f_2_2694" x="-6" y="0" width="2572" height="1656" filterUnits="userSpaceOnUse" color-interpolation-filters="sRGB">
<feFlood flood-opacity="0" result="BackgroundImageFix"/>
<feBlend mode="normal" in="SourceGraphic" in2="BackgroundImageFix" result="shape"/>
<feGaussianBlur stdDeviation="2.5" result="effect1_foregroundBlur_2_2694"/>
</filter>
<linearGradient id="paint0_linear_2_2694" x1="1280" y1="6" x2="1280" y2="1650" gradientUnits="userSpaceOnUse">
<stop stop-color="#34112A"/>
<stop offset="1" stop-color="#3A131D"/>
</linearGradient>
<linearGradient id="paint1_linear_2_2694" x1="1280" y1="6" x2="1280" y2="1650" gradientUnits="userSpaceOnUse">
<stop stop-color="#34112A"/>
<stop offset="1" stop-color="#3A131D"/>
</linearGradient>
<linearGradient id="paint2_linear_2_2694" x1="1280" y1="6" x2="1280" y2="1650" gradientUnits="userSpaceOnUse">
<stop stop-color="#34112A"/>
<stop offset="1" stop-color="#3A131D"/>
</linearGradient>
<linearGradient id="paint3_linear_2_2694" x1="1280" y1="6" x2="1280" y2="1650" gradientUnits="userSpaceOnUse">
<stop stop-color="#34112A"/>
<stop offset="1" stop-color="#3A131D"/>
</linearGradient>
<linearGradient id="paint4_linear_2_2694" x1="1280" y1="6" x2="1280" y2="1650" gradientUnits="userSpaceOnUse">
<stop stop-color="#34112A"/>
<stop offset="1" stop-color="#3A131D"/>
</linearGradient>
<linearGradient id="paint5_linear_2_2694" x1="1280" y1="6" x2="1280" y2="1650" gradientUnits="userSpaceOnUse">
<stop stop-color="#34112A"/>
<stop offset="1" stop-color="#3A131D"/>
</linearGradient>
<linearGradient id="paint6_linear_2_2694" x1="1280" y1="6" x2="1280" y2="1650" gradientUnits="userSpaceOnUse">
<stop stop-color="#34112A"/>
<stop offset="1" stop-color="#3A131D"/>
</linearGradient>
<linearGradient id="paint7_linear_2_2694" x1="1280" y1="6" x2="1280" y2="1650" gradientUnits="userSpaceOnUse">
<stop stop-color="#34112A"/>
<stop offset="1" stop-color="#3A131D"/>
</linearGradient>
<linearGradient id="paint8_linear_2_2694" x1="1280" y1="6" x2="1280" y2="1650" gradientUnits="userSpaceOnUse">
<stop stop-color="#34112A"/>
<stop offset="1" stop-color="#3A131D"/>
</linearGradient>
<linearGradient id="paint9_linear_2_2694" x1="1280" y1="6" x2="1280" y2="1650" gradientUnits="userSpaceOnUse">
<stop stop-color="#34112A"/>
<stop offset="1" stop-color="#3A131D"/>
</linearGradient>
<linearGradient id="paint10_linear_2_2694" x1="1280" y1="6" x2="1280" y2="1650" gradientUnits="userSpaceOnUse">
<stop stop-color="#34112A"/>
<stop offset="1" stop-color="#3A131D"/>
</linearGradient>
<linearGradient id="paint11_linear_2_2694" x1="1280" y1="6" x2="1280" y2="1650" gradientUnits="userSpaceOnUse">
<stop stop-color="#34112A"/>
<stop offset="1" stop-color="#3A131D"/>
</linearGradient>
<linearGradient id="paint12_linear_2_2694" x1="1280" y1="6" x2="1280" y2="1650" gradientUnits="userSpaceOnUse">
<stop stop-color="#34112A"/>
<stop offset="1" stop-color="#3A131D"/>
</linearGradient>
<linearGradient id="paint13_linear_2_2694" x1="1280" y1="6" x2="1280" y2="1650" gradientUnits="userSpaceOnUse">
<stop stop-color="#34112A"/>
<stop offset="1" stop-color="#3A131D"/>
</linearGradient>
<linearGradient id="paint14_linear_2_2694" x1="1280" y1="6" x2="1280" y2="1650" gradientUnits="userSpaceOnUse">
<stop stop-color="#34112A"/>
<stop offset="1" stop-color="#3A131D"/>
</linearGradient>
<linearGradient id="paint15_linear_2_2694" x1="1280" y1="6" x2="1280" y2="1650" gradientUnits="userSpaceOnUse">
<stop stop-color="#34112A"/>
<stop offset="1" stop-color="#3A131D"/>
</linearGradient>
<linearGradient id="paint16_linear_2_2694" x1="1280" y1="6" x2="1280" y2="1650" gradientUnits="userSpaceOnUse">
<stop stop-color="#34112A"/>
<stop offset="1" stop-color="#3A131D"/>
</linearGradient>
<linearGradient id="paint17_linear_2_2694" x1="1280" y1="6" x2="1280" y2="1650" gradientUnits="userSpaceOnUse">
<stop stop-color="#34112A"/>
<stop offset="1" stop-color="#3A131D"/>
</linearGradient>
<linearGradient id="paint18_linear_2_2694" x1="1280" y1="6" x2="1280" y2="1650" gradientUnits="userSpaceOnUse">
<stop stop-color="#34112A"/>
<stop offset="1" stop-color="#3A131D"/>
</linearGradient>
<linearGradient id="paint19_linear_2_2694" x1="1280" y1="6" x2="1280" y2="1650" gradientUnits="userSpaceOnUse">
<stop stop-color="#34112A"/>
<stop offset="1" stop-color="#3A131D"/>
</linearGradient>
<linearGradient id="paint20_linear_2_2694" x1="1280" y1="6" x2="1280" y2="1650" gradientUnits="userSpaceOnUse">
<stop stop-color="#34112A"/>
<stop offset="1" stop-color="#3A131D"/>
</linearGradient>
<linearGradient id="paint21_linear_2_2694" x1="1280" y1="6" x2="1280" y2="1650" gradientUnits="userSpaceOnUse">
<stop stop-color="#34112A"/>
<stop offset="1" stop-color="#3A131D"/>
</linearGradient>
<linearGradient id="paint22_linear_2_2694" x1="1280" y1="6" x2="1280" y2="1650" gradientUnits="userSpaceOnUse">
<stop stop-color="#34112A"/>
<stop offset="1" stop-color="#3A131D"/>
</linearGradient>
<linearGradient id="paint23_linear_2_2694" x1="1280" y1="6" x2="1280" y2="1650" gradientUnits="userSpaceOnUse">
<stop stop-color="#34112A"/>
<stop offset="1" stop-color="#3A131D"/>
</linearGradient>
<linearGradient id="paint24_linear_2_2694" x1="1280" y1="6" x2="1280" y2="1650" gradientUnits="userSpaceOnUse">
<stop stop-color="#34112A"/>
<stop offset="1" stop-color="#3A131D"/>
</linearGradient>
<linearGradient id="paint25_linear_2_2694" x1="1280" y1="6" x2="1280" y2="1650" gradientUnits="userSpaceOnUse">
<stop stop-color="#34112A"/>
<stop offset="1" stop-color="#3A131D"/>
</linearGradient>
<linearGradient id="paint26_linear_2_2694" x1="1280" y1="6" x2="1280" y2="1650" gradientUnits="userSpaceOnUse">
<stop stop-color="#34112A"/>
<stop offset="1" stop-color="#3A131D"/>
</linearGradient>
<linearGradient id="paint27_linear_2_2694" x1="1280" y1="6" x2="1280" y2="1650" gradientUnits="userSpaceOnUse">
<stop stop-color="#34112A"/>
<stop offset="1" stop-color="#3A131D"/>
</linearGradient>
<linearGradient id="paint28_linear_2_2694" x1="1280" y1="6" x2="1280" y2="1650" gradientUnits="userSpaceOnUse">
<stop stop-color="#34112A"/>
<stop offset="1" stop-color="#3A131D"/>
</linearGradient>
<linearGradient id="paint29_linear_2_2694" x1="1280" y1="6" x2="1280" y2="1650" gradientUnits="userSpaceOnUse">
<stop stop-color="#34112A"/>
<stop offset="1" stop-color="#3A131D"/>
</linearGradient>
<linearGradient id="paint30_linear_2_2694" x1="1280" y1="6" x2="1280" y2="1650" gradientUnits="userSpaceOnUse">
<stop stop-color="#34112A"/>
<stop offset="1" stop-color="#3A131D"/>
</linearGradient>
<linearGradient id="paint31_linear_2_2694" x1="1280" y1="6" x2="1280" y2="1650" gradientUnits="userSpaceOnUse">
<stop stop-color="#34112A"/>
<stop offset="1" stop-color="#3A131D"/>
</linearGradient>
<linearGradient id="paint32_linear_2_2694" x1="1280" y1="6" x2="1280" y2="1650" gradientUnits="userSpaceOnUse">
<stop stop-color="#34112A"/>
<stop offset="1" stop-color="#3A131D"/>
</linearGradient>
<linearGradient id="paint33_linear_2_2694" x1="1280" y1="6" x2="1280" y2="1650" gradientUnits="userSpaceOnUse">
<stop stop-color="#34112A"/>
<stop offset="1" stop-color="#3A131D"/>
</linearGradient>
<linearGradient id="paint34_linear_2_2694" x1="1280" y1="6" x2="1280" y2="1650" gradientUnits="userSpaceOnUse">
<stop stop-color="#34112A"/>
<stop offset="1" stop-color="#3A131D"/>
</linearGradient>
<linearGradient id="paint35_linear_2_2694" x1="1280" y1="6" x2="1280" y2="1650" gradientUnits="userSpaceOnUse">
<stop stop-color="#34112A"/>
<stop offset="1" stop-color="#3A131D"/>
</linearGradient>
<linearGradient id="paint36_linear_2_2694" x1="1280" y1="6" x2="1280" y2="1650" gradientUnits="userSpaceOnUse">
<stop stop-color="#34112A"/>
<stop offset="1" stop-color="#3A131D"/>
</linearGradient>
<linearGradient id="paint37_linear_2_2694" x1="1280" y1="6" x2="1280" y2="1650" gradientUnits="userSpaceOnUse">
<stop stop-color="#34112A"/>
<stop offset="1" stop-color="#3A131D"/>
</linearGradient>
<linearGradient id="paint38_linear_2_2694" x1="1280" y1="6" x2="1280" y2="1650" gradientUnits="userSpaceOnUse">
<stop stop-color="#34112A"/>
<stop offset="1" stop-color="#3A131D"/>
</linearGradient>
<linearGradient id="paint39_linear_2_2694" x1="1280" y1="6" x2="1280" y2="1650" gradientUnits="userSpaceOnUse">
<stop stop-color="#34112A"/>
<stop offset="1" stop-color="#3A131D"/>
</linearGradient>
<linearGradient id="paint40_linear_2_2694" x1="1280" y1="6" x2="1280" y2="1650" gradientUnits="userSpaceOnUse">
<stop stop-color="#34112A"/>
<stop offset="1" stop-color="#3A131D"/>
</linearGradient>
<linearGradient id="paint41_linear_2_2694" x1="1280" y1="798.931" x2="1280" y2="857.07" gradientUnits="userSpaceOnUse">
<stop stop-color="#34112A"/>
<stop offset="1" stop-color="#3A131D"/>
</linearGradient>
<linearGradient id="paint42_linear_2_2694" x1="1280" y1="796.247" x2="1280" y2="859.753" gradientUnits="userSpaceOnUse">
<stop stop-color="#34112A"/>
<stop offset="1" stop-color="#3A131D"/>
</linearGradient>
<linearGradient id="paint43_linear_2_2694" x1="1280" y1="793.564" x2="1280" y2="862.436" gradientUnits="userSpaceOnUse">
<stop stop-color="#34112A"/>
<stop offset="1" stop-color="#3A131D"/>
</linearGradient>
<linearGradient id="paint44_linear_2_2694" x1="1280" y1="790.433" x2="1280" y2="865.566" gradientUnits="userSpaceOnUse">
<stop stop-color="#34112A"/>
<stop offset="1" stop-color="#3A131D"/>
</linearGradient>
<linearGradient id="paint45_linear_2_2694" x1="1280" y1="787.302" x2="1280" y2="868.697" gradientUnits="userSpaceOnUse">
<stop stop-color="#34112A"/>
<stop offset="1" stop-color="#3A131D"/>
</linearGradient>
<linearGradient id="paint46_linear_2_2694" x1="1280" y1="783.724" x2="1280" y2="872.275" gradientUnits="userSpaceOnUse">
<stop stop-color="#34112A"/>
<stop offset="1" stop-color="#3A131D"/>
</linearGradient>
<linearGradient id="paint47_linear_2_2694" x1="1280" y1="779.7" x2="1280" y2="876.3" gradientUnits="userSpaceOnUse">
<stop stop-color="#34112A"/>
<stop offset="1" stop-color="#3A131D"/>
</linearGradient>
<linearGradient id="paint48_linear_2_2694" x1="1280" y1="775.675" x2="1280" y2="880.325" gradientUnits="userSpaceOnUse">
<stop stop-color="#34112A"/>
<stop offset="1" stop-color="#3A131D"/>
</linearGradient>
<linearGradient id="paint49_linear_2_2694" x1="1280" y1="771.202" x2="1280" y2="884.798" gradientUnits="userSpaceOnUse">
<stop stop-color="#34112A"/>
<stop offset="1" stop-color="#3A131D"/>
</linearGradient>
<linearGradient id="paint50_linear_2_2694" x1="1280" y1="765.835" x2="1280" y2="890.164" gradientUnits="userSpaceOnUse">
<stop stop-color="#34112A"/>
<stop offset="1" stop-color="#3A131D"/>
</linearGradient>
<linearGradient id="paint51_linear_2_2694" x1="1280" y1="760.469" x2="1280" y2="895.531" gradientUnits="userSpaceOnUse">
<stop stop-color="#34112A"/>
<stop offset="1" stop-color="#3A131D"/>
</linearGradient>
<linearGradient id="paint52_linear_2_2694" x1="1280" y1="754.655" x2="1280" y2="901.345" gradientUnits="userSpaceOnUse">
<stop stop-color="#34112A"/>
<stop offset="1" stop-color="#3A131D"/>
</linearGradient>
<linearGradient id="paint53_linear_2_2694" x1="1280" y1="748.394" x2="1280" y2="907.606" gradientUnits="userSpaceOnUse">
<stop stop-color="#34112A"/>
<stop offset="1" stop-color="#3A131D"/>
</linearGradient>
<linearGradient id="paint54_linear_2_2694" x1="1280" y1="741.686" x2="1280" y2="914.314" gradientUnits="userSpaceOnUse">
<stop stop-color="#34112A"/>
<stop offset="1" stop-color="#3A131D"/>
</linearGradient>
<linearGradient id="paint55_linear_2_2694" x1="1280" y1="734.083" x2="1280" y2="921.917" gradientUnits="userSpaceOnUse">
<stop stop-color="#34112A"/>
<stop offset="1" stop-color="#3A131D"/>
</linearGradient>
<linearGradient id="paint56_linear_2_2694" x1="1280" y1="725.585" x2="1280" y2="930.414" gradientUnits="userSpaceOnUse">
<stop stop-color="#34112A"/>
<stop offset="1" stop-color="#3A131D"/>
</linearGradient>
<linearGradient id="paint57_linear_2_2694" x1="1280" y1="717.088" x2="1280" y2="938.912" gradientUnits="userSpaceOnUse">
<stop stop-color="#34112A"/>
<stop offset="1" stop-color="#3A131D"/>
</linearGradient>
<linearGradient id="paint58_linear_2_2694" x1="1280" y1="707.25" x2="1280" y2="948.751" gradientUnits="userSpaceOnUse">
<stop stop-color="#34112A"/>
<stop offset="1" stop-color="#3A131D"/>
</linearGradient>
<linearGradient id="paint59_linear_2_2694" x1="1280" y1="696.963" x2="1280" y2="959.037" gradientUnits="userSpaceOnUse">
<stop stop-color="#34112A"/>
<stop offset="1" stop-color="#3A131D"/>
</linearGradient>
<linearGradient id="paint60_linear_2_2694" x1="1280" y1="685.335" x2="1280" y2="970.664" gradientUnits="userSpaceOnUse">
<stop stop-color="#34112A"/>
<stop offset="1" stop-color="#3A131D"/>
</linearGradient>
<linearGradient id="paint61_linear_2_2694" x1="1280" y1="672.813" x2="1280" y2="983.187" gradientUnits="userSpaceOnUse">
<stop stop-color="#34112A"/>
<stop offset="1" stop-color="#3A131D"/>
</linearGradient>
<linearGradient id="paint62_linear_2_2694" x1="1280" y1="659.396" x2="1280" y2="996.604" gradientUnits="userSpaceOnUse">
<stop stop-color="#34112A"/>
<stop offset="1" stop-color="#3A131D"/>
</linearGradient>
<linearGradient id="paint63_linear_2_2694" x1="1280" y1="644.638" x2="1280" y2="1011.36" gradientUnits="userSpaceOnUse">
<stop stop-color="#34112A"/>
<stop offset="1" stop-color="#3A131D"/>
</linearGradient>
<linearGradient id="paint64_linear_2_2694" x1="1280" y1="628.985" x2="1280" y2="1027.02" gradientUnits="userSpaceOnUse">
<stop stop-color="#34112A"/>
<stop offset="1" stop-color="#3A131D"/>
</linearGradient>
<linearGradient id="paint65_linear_2_2694" x1="1280" y1="611.543" x2="1280" y2="1044.46" gradientUnits="userSpaceOnUse">
<stop stop-color="#34112A"/>
<stop offset="1" stop-color="#3A131D"/>
</linearGradient>
<linearGradient id="paint66_linear_2_2694" x1="1280" y1="592.759" x2="1280" y2="1063.24" gradientUnits="userSpaceOnUse">
<stop stop-color="#34112A"/>
<stop offset="1" stop-color="#3A131D"/>
</linearGradient>
<linearGradient id="paint67_linear_2_2694" x1="1280" y1="572.187" x2="1280" y2="1083.81" gradientUnits="userSpaceOnUse">
<stop stop-color="#34112A"/>
<stop offset="1" stop-color="#3A131D"/>
</linearGradient>
<linearGradient id="paint68_linear_2_2694" x1="1280" y1="549.826" x2="1280" y2="1106.17" gradientUnits="userSpaceOnUse">
<stop stop-color="#34112A"/>
<stop offset="1" stop-color="#3A131D"/>
</linearGradient>
<linearGradient id="paint69_linear_2_2694" x1="1280" y1="525.676" x2="1280" y2="1130.32" gradientUnits="userSpaceOnUse">
<stop stop-color="#34112A"/>
<stop offset="1" stop-color="#3A131D"/>
</linearGradient>
<linearGradient id="paint70_linear_2_2694" x1="1280" y1="499.736" x2="1280" y2="1156.26" gradientUnits="userSpaceOnUse">
<stop stop-color="#34112A"/>
<stop offset="1" stop-color="#3A131D"/>
</linearGradient>
<linearGradient id="paint71_linear_2_2694" x1="1280" y1="471.114" x2="1280" y2="1184.89" gradientUnits="userSpaceOnUse">
<stop stop-color="#34112A"/>
<stop offset="1" stop-color="#3A131D"/>
</linearGradient>
<linearGradient id="paint72_linear_2_2694" x1="1280" y1="439.809" x2="1280" y2="1216.19" gradientUnits="userSpaceOnUse">
<stop stop-color="#34112A"/>
<stop offset="1" stop-color="#3A131D"/>
</linearGradient>
<linearGradient id="paint73_linear_2_2694" x1="1280" y1="406.267" x2="1280" y2="1249.73" gradientUnits="userSpaceOnUse">
<stop stop-color="#34112A"/>
<stop offset="1" stop-color="#3A131D"/>
</linearGradient>
<linearGradient id="paint74_linear_2_2694" x1="1280" y1="369.594" x2="1280" y2="1286.41" gradientUnits="userSpaceOnUse">
<stop stop-color="#34112A"/>
<stop offset="1" stop-color="#3A131D"/>
</linearGradient>
<linearGradient id="paint75_linear_2_2694" x1="1280" y1="329.791" x2="1280" y2="1326.21" gradientUnits="userSpaceOnUse">
<stop stop-color="#34112A"/>
<stop offset="1" stop-color="#3A131D"/>
</linearGradient>
<linearGradient id="paint76_linear_2_2694" x1="1280" y1="286.41" x2="1280" y2="1369.59" gradientUnits="userSpaceOnUse">
<stop stop-color="#34112A"/>
<stop offset="1" stop-color="#3A131D"/>
</linearGradient>
<linearGradient id="paint77_linear_2_2694" x1="1280" y1="239.451" x2="1280" y2="1416.55" gradientUnits="userSpaceOnUse">
<stop stop-color="#34112A"/>
<stop offset="1" stop-color="#3A131D"/>
</linearGradient>
<linearGradient id="paint78_linear_2_2694" x1="1280" y1="188.02" x2="1280" y2="1467.98" gradientUnits="userSpaceOnUse">
<stop stop-color="#34112A"/>
<stop offset="1" stop-color="#3A131D"/>
</linearGradient>
<linearGradient id="paint79_linear_2_2694" x1="1280" y1="132.565" x2="1280" y2="1523.44" gradientUnits="userSpaceOnUse">
<stop stop-color="#34112A"/>
<stop offset="1" stop-color="#3A131D"/>
</linearGradient>
<linearGradient id="paint80_linear_2_2694" x1="1280" y1="71.7419" x2="1280" y2="1584.26" gradientUnits="userSpaceOnUse">
<stop stop-color="#34112A"/>
<stop offset="1" stop-color="#3A131D"/>
</linearGradient>
<linearGradient id="paint81_linear_2_2694" x1="1280" y1="6" x2="1280" y2="1650" gradientUnits="userSpaceOnUse">
<stop stop-color="#34112A"/>
<stop offset="1" stop-color="#3A131D"/>
</linearGradient>
</defs>
</svg>
