<svg width="122" height="122" viewBox="0 0 122 122" fill="none" xmlns="http://www.w3.org/2000/svg">
<g filter="url(#filter0_ddif_2_3556)">
<path fill-rule="evenodd" clip-rule="evenodd" d="M47.6487 61.0001C47.6487 53.6262 53.6262 47.6487 61.0001 47.6487C68.3738 47.6487 74.3513 53.6262 74.3513 61.0001C74.3513 68.3738 68.3738 74.3513 61.0001 74.3513C53.6262 74.3513 47.6487 68.3738 47.6487 61.0001ZM61 69.6667C56.2135 69.6667 52.3333 65.7865 52.3333 61.0001C52.3333 56.2135 56.2135 52.3333 61 52.3333C65.7865 52.3333 69.6667 56.2135 69.6667 61.0001C69.6667 65.7865 65.7865 69.6667 61 69.6667Z" stroke="#5062E5" stroke-opacity="0.2"/>
<path d="M74.8788 50.2411C76.602 50.2411 77.9989 48.8443 77.9989 47.1212C77.9989 45.398 76.602 44.0011 74.8788 44.0011C73.1558 44.0011 71.7589 45.398 71.7589 47.1212C71.7589 48.8443 73.1558 50.2411 74.8788 50.2411Z" stroke="#5062E5" stroke-opacity="0.2"/>
<path fill-rule="evenodd" clip-rule="evenodd" d="M61.0001 35C53.9388 35 53.0534 35.0299 50.2802 35.1565C47.5128 35.2827 45.6228 35.7222 43.969 36.365C42.2593 37.0294 40.8093 37.9184 39.3638 39.3638C37.9184 40.8093 37.0294 42.2593 36.365 43.969C35.7222 45.6228 35.2827 47.5128 35.1565 50.2802C35.0299 53.0534 35 53.9388 35 61.0001C35 68.0612 35.0299 68.9466 35.1565 71.7198C35.2827 74.4872 35.7222 76.3772 36.365 78.031C37.0294 79.7407 37.9184 81.1907 39.3638 82.6362C40.8093 84.0816 42.2593 84.9706 43.969 85.6351C45.6228 86.2778 47.5128 86.7173 50.2802 86.8435C53.0534 86.9701 53.9388 87 61.0001 87C68.0612 87 68.9466 86.9701 71.7198 86.8435C74.4872 86.7173 76.3772 86.2778 78.031 85.6351C79.7407 84.9706 81.1907 84.0816 82.6362 82.6362C84.0816 81.1907 84.9706 79.7407 85.6351 78.031C86.2778 76.3772 86.7173 74.4872 86.8435 71.7198C86.9701 68.9466 87 68.0612 87 61.0001C87 53.9388 86.9701 53.0534 86.8435 50.2802C86.7173 47.5128 86.2778 45.6228 85.6351 43.969C84.9706 42.2593 84.0816 40.8093 82.6362 39.3638C81.1907 37.9184 79.7407 37.0294 78.031 36.365C76.3772 35.7222 74.4872 35.2827 71.7198 35.1565C68.9466 35.0299 68.0612 35 61.0001 35ZM61.0001 39.6847C67.9423 39.6847 68.7646 39.7112 71.5062 39.8363C74.0412 39.9519 75.4179 40.3754 76.3341 40.7315C77.5477 41.2032 78.4138 41.7666 79.3236 42.6764C80.2334 43.5862 80.7968 44.4523 81.2685 45.6659C81.6246 46.5821 82.0481 47.9588 82.1637 50.4938C82.2888 53.2354 82.3153 54.0577 82.3153 61.0001C82.3153 67.9423 82.2888 68.7646 82.1637 71.5062C82.0481 74.0412 81.6246 75.4179 81.2685 76.3341C80.7968 77.5477 80.2334 78.4138 79.3236 79.3236C78.4138 80.2334 77.5477 80.7968 76.3341 81.2685C75.4179 81.6246 74.0412 82.0481 71.5062 82.1637C68.7651 82.2888 67.9428 82.3153 61.0001 82.3153C54.0572 82.3153 53.2351 82.2888 50.4938 82.1637C47.9588 82.0481 46.5821 81.6246 45.6659 81.2685C44.4523 80.7968 43.5862 80.2334 42.6765 79.3236C41.7667 78.4138 41.2032 77.5477 40.7315 76.3341C40.3754 75.4179 39.9519 74.0412 39.8363 71.5062C39.7112 68.7646 39.6847 67.9423 39.6847 61.0001C39.6847 54.0577 39.7112 53.2354 39.8363 50.4938C39.9519 47.9588 40.3754 46.5821 40.7315 45.6659C41.2032 44.4523 41.7666 43.5862 42.6765 42.6764C43.5862 41.7666 44.4523 41.2032 45.6659 40.7315C46.5821 40.3754 47.9588 39.9519 50.4938 39.8363C53.2354 39.7112 54.0577 39.6847 61.0001 39.6847Z" stroke="#5062E5" stroke-opacity="0.2"/>
</g>
<g filter="url(#filter1_f_2_3556)">
<path fill-rule="evenodd" clip-rule="evenodd" d="M47.6487 61.0001C47.6487 53.6262 53.6262 47.6487 61.0001 47.6487C68.3738 47.6487 74.3513 53.6262 74.3513 61.0001C74.3513 68.3738 68.3738 74.3513 61.0001 74.3513C53.6262 74.3513 47.6487 68.3738 47.6487 61.0001ZM61 69.6667C56.2135 69.6667 52.3333 65.7865 52.3333 61.0001C52.3333 56.2135 56.2135 52.3333 61 52.3333C65.7865 52.3333 69.6667 56.2135 69.6667 61.0001C69.6667 65.7865 65.7865 69.6667 61 69.6667Z" stroke="#5062E5" stroke-width="1.5"/>
<path d="M74.8788 50.2411C76.602 50.2411 77.9989 48.8443 77.9989 47.1212C77.9989 45.398 76.602 44.0011 74.8788 44.0011C73.1558 44.0011 71.7589 45.398 71.7589 47.1212C71.7589 48.8443 73.1558 50.2411 74.8788 50.2411Z" stroke="#5062E5" stroke-width="1.5"/>
<path fill-rule="evenodd" clip-rule="evenodd" d="M61.0001 35C53.9388 35 53.0534 35.0299 50.2802 35.1565C47.5128 35.2827 45.6228 35.7222 43.969 36.365C42.2593 37.0294 40.8093 37.9184 39.3638 39.3638C37.9184 40.8093 37.0294 42.2593 36.365 43.969C35.7222 45.6228 35.2827 47.5128 35.1565 50.2802C35.0299 53.0534 35 53.9388 35 61.0001C35 68.0612 35.0299 68.9466 35.1565 71.7198C35.2827 74.4872 35.7222 76.3772 36.365 78.031C37.0294 79.7407 37.9184 81.1907 39.3638 82.6362C40.8093 84.0816 42.2593 84.9706 43.969 85.6351C45.6228 86.2778 47.5128 86.7173 50.2802 86.8435C53.0534 86.9701 53.9388 87 61.0001 87C68.0612 87 68.9466 86.9701 71.7198 86.8435C74.4872 86.7173 76.3772 86.2778 78.031 85.6351C79.7407 84.9706 81.1907 84.0816 82.6362 82.6362C84.0816 81.1907 84.9706 79.7407 85.6351 78.031C86.2778 76.3772 86.7173 74.4872 86.8435 71.7198C86.9701 68.9466 87 68.0612 87 61.0001C87 53.9388 86.9701 53.0534 86.8435 50.2802C86.7173 47.5128 86.2778 45.6228 85.6351 43.969C84.9706 42.2593 84.0816 40.8093 82.6362 39.3638C81.1907 37.9184 79.7407 37.0294 78.031 36.365C76.3772 35.7222 74.4872 35.2827 71.7198 35.1565C68.9466 35.0299 68.0612 35 61.0001 35ZM61.0001 39.6847C67.9423 39.6847 68.7646 39.7112 71.5062 39.8363C74.0412 39.9519 75.4179 40.3754 76.3341 40.7315C77.5477 41.2032 78.4138 41.7666 79.3236 42.6764C80.2334 43.5862 80.7968 44.4523 81.2685 45.6659C81.6246 46.5821 82.0481 47.9588 82.1637 50.4938C82.2888 53.2354 82.3153 54.0577 82.3153 61.0001C82.3153 67.9423 82.2888 68.7646 82.1637 71.5062C82.0481 74.0412 81.6246 75.4179 81.2685 76.3341C80.7968 77.5477 80.2334 78.4138 79.3236 79.3236C78.4138 80.2334 77.5477 80.7968 76.3341 81.2685C75.4179 81.6246 74.0412 82.0481 71.5062 82.1637C68.7651 82.2888 67.9428 82.3153 61.0001 82.3153C54.0572 82.3153 53.2351 82.2888 50.4938 82.1637C47.9588 82.0481 46.5821 81.6246 45.6659 81.2685C44.4523 80.7968 43.5862 80.2334 42.6765 79.3236C41.7667 78.4138 41.2032 77.5477 40.7315 76.3341C40.3754 75.4179 39.9519 74.0412 39.8363 71.5062C39.7112 68.7646 39.6847 67.9423 39.6847 61.0001C39.6847 54.0577 39.7112 53.2354 39.8363 50.4938C39.9519 47.9588 40.3754 46.5821 40.7315 45.6659C41.2032 44.4523 41.7666 43.5862 42.6765 42.6764C43.5862 41.7666 44.4523 41.2032 45.6659 40.7315C46.5821 40.3754 47.9588 39.9519 50.4938 39.8363C53.2354 39.7112 54.0577 39.6847 61.0001 39.6847Z" stroke="#5062E5" stroke-width="1.5"/>
</g>
<g filter="url(#filter2_f_2_3556)">
<path fill-rule="evenodd" clip-rule="evenodd" d="M47.6487 61.0001C47.6487 53.6262 53.6262 47.6487 61.0001 47.6487C68.3738 47.6487 74.3513 53.6262 74.3513 61.0001C74.3513 68.3738 68.3738 74.3513 61.0001 74.3513C53.6262 74.3513 47.6487 68.3738 47.6487 61.0001ZM61 69.6667C56.2135 69.6667 52.3333 65.7865 52.3333 61.0001C52.3333 56.2135 56.2135 52.3333 61 52.3333C65.7865 52.3333 69.6667 56.2135 69.6667 61.0001C69.6667 65.7865 65.7865 69.6667 61 69.6667Z" stroke="white"/>
<path d="M74.8788 50.2411C76.602 50.2411 77.9989 48.8443 77.9989 47.1212C77.9989 45.398 76.602 44.0011 74.8788 44.0011C73.1558 44.0011 71.7589 45.398 71.7589 47.1212C71.7589 48.8443 73.1558 50.2411 74.8788 50.2411Z" stroke="white"/>
<path fill-rule="evenodd" clip-rule="evenodd" d="M61.0001 35C53.9388 35 53.0534 35.0299 50.2802 35.1565C47.5128 35.2827 45.6228 35.7222 43.969 36.365C42.2593 37.0294 40.8093 37.9184 39.3638 39.3638C37.9184 40.8093 37.0294 42.2593 36.365 43.969C35.7222 45.6228 35.2827 47.5128 35.1565 50.2802C35.0299 53.0534 35 53.9388 35 61.0001C35 68.0612 35.0299 68.9466 35.1565 71.7198C35.2827 74.4872 35.7222 76.3772 36.365 78.031C37.0294 79.7407 37.9184 81.1907 39.3638 82.6362C40.8093 84.0816 42.2593 84.9706 43.969 85.6351C45.6228 86.2778 47.5128 86.7173 50.2802 86.8435C53.0534 86.9701 53.9388 87 61.0001 87C68.0612 87 68.9466 86.9701 71.7198 86.8435C74.4872 86.7173 76.3772 86.2778 78.031 85.6351C79.7407 84.9706 81.1907 84.0816 82.6362 82.6362C84.0816 81.1907 84.9706 79.7407 85.6351 78.031C86.2778 76.3772 86.7173 74.4872 86.8435 71.7198C86.9701 68.9466 87 68.0612 87 61.0001C87 53.9388 86.9701 53.0534 86.8435 50.2802C86.7173 47.5128 86.2778 45.6228 85.6351 43.969C84.9706 42.2593 84.0816 40.8093 82.6362 39.3638C81.1907 37.9184 79.7407 37.0294 78.031 36.365C76.3772 35.7222 74.4872 35.2827 71.7198 35.1565C68.9466 35.0299 68.0612 35 61.0001 35ZM61.0001 39.6847C67.9423 39.6847 68.7646 39.7112 71.5062 39.8363C74.0412 39.9519 75.4179 40.3754 76.3341 40.7315C77.5477 41.2032 78.4138 41.7666 79.3236 42.6764C80.2334 43.5862 80.7968 44.4523 81.2685 45.6659C81.6246 46.5821 82.0481 47.9588 82.1637 50.4938C82.2888 53.2354 82.3153 54.0577 82.3153 61.0001C82.3153 67.9423 82.2888 68.7646 82.1637 71.5062C82.0481 74.0412 81.6246 75.4179 81.2685 76.3341C80.7968 77.5477 80.2334 78.4138 79.3236 79.3236C78.4138 80.2334 77.5477 80.7968 76.3341 81.2685C75.4179 81.6246 74.0412 82.0481 71.5062 82.1637C68.7651 82.2888 67.9428 82.3153 61.0001 82.3153C54.0572 82.3153 53.2351 82.2888 50.4938 82.1637C47.9588 82.0481 46.5821 81.6246 45.6659 81.2685C44.4523 80.7968 43.5862 80.2334 42.6765 79.3236C41.7667 78.4138 41.2032 77.5477 40.7315 76.3341C40.3754 75.4179 39.9519 74.0412 39.8363 71.5062C39.7112 68.7646 39.6847 67.9423 39.6847 61.0001C39.6847 54.0577 39.7112 53.2354 39.8363 50.4938C39.9519 47.9588 40.3754 46.5821 40.7315 45.6659C41.2032 44.4523 41.7666 43.5862 42.6765 42.6764C43.5862 41.7666 44.4523 41.2032 45.6659 40.7315C46.5821 40.3754 47.9588 39.9519 50.4938 39.8363C53.2354 39.7112 54.0577 39.6847 61.0001 39.6847Z" stroke="white"/>
</g>
<defs>
<filter id="filter0_ddif_2_3556" x="0.00935364" y="0.00935364" width="121.981" height="121.981" filterUnits="userSpaceOnUse" color-interpolation-filters="sRGB">
<feFlood flood-opacity="0" result="BackgroundImageFix"/>
<feColorMatrix in="SourceAlpha" type="matrix" values="0 0 0 0 0 0 0 0 0 0 0 0 0 0 0 0 0 0 127 0" result="hardAlpha"/>
<feOffset/>
<feGaussianBlur stdDeviation="6.63282"/>
<feColorMatrix type="matrix" values="0 0 0 0 0.0382353 0 0 0 0 0.0647059 0 0 0 0 0.261765 0 0 0 0.6 0"/>
<feBlend mode="multiply" in2="BackgroundImageFix" result="effect1_dropShadow_2_3556"/>
<feColorMatrix in="SourceAlpha" type="matrix" values="0 0 0 0 0 0 0 0 0 0 0 0 0 0 0 0 0 0 127 0" result="hardAlpha"/>
<feOffset/>
<feGaussianBlur stdDeviation="17.2453"/>
<feColorMatrix type="matrix" values="0 0 0 0 0.0764706 0 0 0 0 0.129412 0 0 0 0 0.523529 0 0 0 0.6 0"/>
<feBlend mode="color-dodge" in2="effect1_dropShadow_2_3556" result="effect2_dropShadow_2_3556"/>
<feBlend mode="normal" in="SourceGraphic" in2="effect2_dropShadow_2_3556" result="shape"/>
<feColorMatrix in="SourceAlpha" type="matrix" values="0 0 0 0 0 0 0 0 0 0 0 0 0 0 0 0 0 0 127 0" result="hardAlpha"/>
<feOffset/>
<feGaussianBlur stdDeviation="0.5"/>
<feComposite in2="hardAlpha" operator="arithmetic" k2="-1" k3="1"/>
<feColorMatrix type="matrix" values="0 0 0 0 1 0 0 0 0 1 0 0 0 0 1 0 0 0 0.5 0"/>
<feBlend mode="normal" in2="shape" result="effect3_innerShadow_2_3556"/>
<feGaussianBlur stdDeviation="0.05" result="effect4_foregroundBlur_2_3556"/>
</filter>
<filter id="filter1_f_2_3556" x="34.15" y="34.15" width="53.7" height="53.7" filterUnits="userSpaceOnUse" color-interpolation-filters="sRGB">
<feFlood flood-opacity="0" result="BackgroundImageFix"/>
<feBlend mode="normal" in="SourceGraphic" in2="BackgroundImageFix" result="shape"/>
<feGaussianBlur stdDeviation="0.05" result="effect1_foregroundBlur_2_3556"/>
</filter>
<filter id="filter2_f_2_3556" x="34.4" y="34.4" width="53.2" height="53.2" filterUnits="userSpaceOnUse" color-interpolation-filters="sRGB">
<feFlood flood-opacity="0" result="BackgroundImageFix"/>
<feBlend mode="normal" in="SourceGraphic" in2="BackgroundImageFix" result="shape"/>
<feGaussianBlur stdDeviation="0.05" result="effect1_foregroundBlur_2_3556"/>
</filter>
</defs>
</svg>
