<svg width="702" height="577" viewBox="0 0 702 577" fill="none" xmlns="http://www.w3.org/2000/svg">
<g clip-path="url(#clip0_2_2840)">
<path d="M267.178 67.6726L80.8691 186.392V0H0V577H80.8691V356.475L274.148 577H427.485L96.5715 271.045L363.362 106.852L267.178 67.6726Z" fill="white"/>
<path d="M360.073 82.2759V400.41H408.616L570.683 577H701.789L502.567 386.305C527.624 376.118 551.109 362.014 570.683 342.425C609.047 304.029 629.405 253.88 629.405 199.813C629.405 147.313 609.047 95.5968 570.683 58.7687C531.539 21.9403 482.993 0 428.972 0H160.307L360.073 82.2759ZM360.073 82.2759H428.972C493.954 82.2759 547.978 133.992 547.978 199.813C547.978 264.85 493.954 318.134 428.972 318.134H360.073V82.2759Z" fill="white"/>
<path d="M431.045 277.815C472.362 277.815 505.855 244.328 505.855 203.019C505.855 161.71 472.362 128.222 431.045 128.222C389.729 128.222 356.235 161.71 356.235 203.019C356.235 244.328 389.729 277.815 431.045 277.815Z" fill="#6F0000"/>
</g>
<defs>
<clipPath id="clip0_2_2840">
<rect width="702" height="577" fill="white"/>
</clipPath>
</defs>
</svg>
