<svg width="273" height="213" viewBox="0 0 273 213" fill="none" xmlns="http://www.w3.org/2000/svg">
<path d="M124.664 52.6049L87.2429 76.4722V39H71V155H87.2429V110.666L126.064 155H156.862L90.3968 93.4909L143.983 60.4815L124.664 52.6049Z" fill="black"/>
<path d="M143.322 55.5407V119.498H153.072L185.624 155H211.958L171.943 116.663C176.976 114.615 181.693 111.779 185.624 107.841C193.33 100.122 197.419 90.04 197.419 79.1704C197.419 68.6158 193.33 58.2188 185.624 50.8149C177.762 43.4109 168.011 39 157.161 39H103.198L143.322 55.5407ZM143.322 55.5407H157.161C170.213 55.5407 181.064 65.9378 181.064 79.1704C181.064 92.2455 170.213 102.958 157.161 102.958H143.322V55.5407Z" fill="black"/>
<path d="M157.578 94.8519C165.876 94.8519 172.604 88.1196 172.604 79.8148C172.604 71.5101 165.876 64.7778 157.578 64.7778C149.279 64.7778 142.552 71.5101 142.552 79.8148C142.552 88.1196 149.279 94.8519 157.578 94.8519Z" fill="#6F0000"/>
</svg>
