<svg width="196" height="161" viewBox="0 0 196 161" fill="none" xmlns="http://www.w3.org/2000/svg">
<g clip-path="url(#clip0_2_3543)">
<path d="M74.5966 18.8827L22.5788 52.0089V0H0V161H22.5788V99.4671L76.5427 161H119.355L26.963 75.6296L101.452 29.8148L74.5966 18.8827Z" fill="white"/>
<path d="M100.533 22.9574V111.726H114.086L159.336 161H195.941L140.318 107.79C147.314 104.948 153.871 101.013 159.336 95.5465C170.047 84.8331 175.731 70.84 175.731 55.7537C175.731 41.1047 170.047 26.6743 159.336 16.3982C148.407 6.12198 134.853 0 119.77 0H44.758L100.533 22.9574ZM100.533 22.9574H119.77C137.913 22.9574 152.997 37.3878 152.997 55.7537C152.997 73.901 137.913 88.7687 119.77 88.7687H100.533V22.9574Z" fill="white"/>
<path d="M120.349 77.5182C131.884 77.5182 141.236 68.1742 141.236 56.6478C141.236 45.1213 131.884 35.7773 120.349 35.7773C108.813 35.7773 99.4617 45.1213 99.4617 56.6478C99.4617 68.1742 108.813 77.5182 120.349 77.5182Z" fill="#6F0000"/>
</g>
<defs>
<clipPath id="clip0_2_3543">
<rect width="196" height="161" fill="white"/>
</clipPath>
</defs>
</svg>
