<svg width="978" height="565" viewBox="0 0 978 565" fill="none" xmlns="http://www.w3.org/2000/svg">
<g filter="url(#filter0_f_2_3160)">
<rect width="360.724" height="759.84" rx="60" transform="matrix(0.866044 -0.499967 0.866044 0.499967 3.1571 182.633)" stroke="#6B24A3" stroke-width="4.44"/>
</g>
<g filter="url(#filter1_d_2_3160)">
<rect width="360.724" height="759.84" rx="60" transform="matrix(0.866044 -0.499967 0.866044 0.499967 3.1571 182.633)" stroke="#FB37FF" stroke-opacity="0.2" stroke-width="1.37"/>
</g>
<g filter="url(#filter2_f_2_3160)">
<rect width="360.724" height="759.84" rx="60" transform="matrix(0.866044 -0.499967 0.866044 0.499967 3.1571 182.633)" stroke="white" stroke-width="1.37"/>
</g>
<g filter="url(#filter3_bf_2_3160)">
<rect width="360.724" height="759.84" rx="60" transform="matrix(0.866044 -0.499967 0.866044 0.499967 3.1571 182.633)" fill="#5B1ED0" fill-opacity="0.01"/>
</g>
<mask id="mask0_2_3160" style="mask-type:alpha" maskUnits="userSpaceOnUse" x="143" y="84" width="98" height="57">
<path fill-rule="evenodd" clip-rule="evenodd" d="M148.968 122.45C141.89 126.535 141.89 133.16 148.968 137.246C156.045 141.331 167.52 141.331 174.597 137.246L235.554 102.055C242.631 97.9696 242.631 91.3452 235.554 87.2594C228.477 83.1736 217.002 83.1736 209.925 87.2594L148.968 122.45ZM226.896 96.6564C229.191 95.3313 229.191 93.1829 226.896 91.8578C224.601 90.5327 220.879 90.5327 218.584 91.8578C216.288 93.1829 216.288 95.3313 218.584 96.6564C220.879 97.9816 224.601 97.9816 226.896 96.6564Z" fill="black"/>
</mask>
<g mask="url(#mask0_2_3160)">
<g filter="url(#filter4_f_2_3160)">
<rect width="97.1485" height="28.9132" rx="14.4566" transform="matrix(0.866044 -0.499967 0.866044 0.499967 136.219 130.101)" stroke="#6C00D8" stroke-opacity="0.5" stroke-width="4.44"/>
</g>
<g filter="url(#filter5_d_2_3160)">
<rect width="97.1485" height="28.9132" rx="14.4566" transform="matrix(0.866044 -0.499967 0.866044 0.499967 136.219 130.101)" stroke="#211356" stroke-width="1.37"/>
</g>
<g filter="url(#filter6_f_2_3160)">
<rect width="97.1485" height="28.9132" rx="14.4566" transform="matrix(0.866044 -0.499967 0.866044 0.499967 136.219 130.101)" stroke="white" stroke-width="1.37"/>
</g>
<g filter="url(#filter7_bif_2_3160)">
<rect width="97.1485" height="28.9132" rx="14.4566" transform="matrix(0.866044 -0.499967 0.866044 0.499967 136.219 130.101)" fill="#5B1ED0" fill-opacity="0.01"/>
</g>
</g>
<g filter="url(#filter8_d_2_3160)">
<path d="M121.06 254.342C120.581 254.066 120.581 253.618 121.06 253.342L122.197 252.685L140.226 263.093L139.089 263.75C138.61 264.026 137.835 264.026 137.357 263.75L121.06 254.342Z" stroke="#6B24A3" stroke-opacity="0.2" stroke-width="3"/>
</g>
<g filter="url(#filter9_f_2_3160)">
<path d="M121.06 254.342C120.581 254.066 120.581 253.618 121.06 253.342L122.197 252.685L139.224 262.515L138.087 263.172C137.609 263.448 136.833 263.448 136.355 263.172L121.06 254.342Z" stroke="#6B24A3"/>
</g>
<g filter="url(#filter10_f_2_3160)">
<path d="M121.06 254.342C120.581 254.066 120.581 253.618 121.06 253.342L122.197 252.685L139.224 262.515L138.087 263.172C137.609 263.448 136.833 263.448 136.355 263.172L121.06 254.342Z" stroke="white" stroke-width="0.5"/>
</g>
<g filter="url(#filter11_d_2_3160)">
<path d="M164.126 279.205C163.647 278.929 163.647 278.481 164.126 278.205L165.263 277.549L205.327 300.678L204.19 301.334C203.712 301.61 202.936 301.61 202.458 301.334L164.126 279.205Z" stroke="#6B24A3" stroke-opacity="0.2" stroke-width="3"/>
</g>
<g filter="url(#filter12_f_2_3160)">
<path d="M164.126 279.205C163.647 278.929 163.647 278.481 164.126 278.205L165.263 277.549L203.101 299.393L201.964 300.049C201.486 300.325 200.71 300.325 200.232 300.049L164.126 279.205Z" stroke="#6B24A3"/>
</g>
<g filter="url(#filter13_f_2_3160)">
<path d="M164.126 279.205C163.647 278.929 163.647 278.481 164.126 278.205L165.263 277.549L203.101 299.393L201.964 300.049C201.486 300.325 200.71 300.325 200.232 300.049L164.126 279.205Z" stroke="white" stroke-width="0.5"/>
</g>
<g filter="url(#filter14_d_2_3160)">
<path d="M221.219 312.164C220.741 311.888 220.741 311.44 221.219 311.164L222.357 310.508L262.421 333.637L261.284 334.293C260.805 334.569 260.03 334.569 259.552 334.293L221.219 312.164Z" stroke="#6B24A3" stroke-opacity="0.2" stroke-width="3"/>
</g>
<g filter="url(#filter15_f_2_3160)">
<path d="M221.219 312.164C220.741 311.888 220.741 311.44 221.219 311.164L222.357 310.508L260.195 332.352L259.058 333.008C258.58 333.284 257.804 333.284 257.326 333.008L221.219 312.164Z" stroke="#6B24A3"/>
</g>
<g filter="url(#filter16_f_2_3160)">
<path d="M221.219 312.164C220.741 311.888 220.741 311.44 221.219 311.164L222.357 310.508L260.195 332.352L259.058 333.008C258.58 333.284 257.804 333.284 257.326 333.008L221.219 312.164Z" stroke="white" stroke-width="0.5"/>
</g>
<g filter="url(#filter17_d_2_3160)">
<path d="M582.07 151.573C582.548 151.849 582.548 152.297 582.07 152.573L580.933 153.23L509.819 112.176L510.956 111.519C511.434 111.243 512.21 111.243 512.688 111.519L582.07 151.573Z" stroke="#6B24A3" stroke-opacity="0.2" stroke-width="3"/>
</g>
<g filter="url(#filter18_f_2_3160)">
<path d="M582.07 151.573C582.548 151.849 582.548 152.297 582.07 152.573L580.933 153.23L513.769 114.456L514.907 113.8C515.385 113.524 516.16 113.524 516.639 113.8L582.07 151.573Z" stroke="#6B24A3"/>
</g>
<g filter="url(#filter19_f_2_3160)">
<path d="M582.07 151.573C582.548 151.849 582.548 152.297 582.07 152.573L580.933 153.23L513.769 114.456L514.907 113.8C515.385 113.524 516.16 113.524 516.639 113.8L582.07 151.573Z" stroke="white" stroke-width="0.5"/>
</g>
<defs>
<filter id="filter0_f_2_3160" x="30.422" y="17.83" width="915.928" height="529.151" filterUnits="userSpaceOnUse" color-interpolation-filters="sRGB">
<feFlood flood-opacity="0" result="BackgroundImageFix"/>
<feBlend mode="normal" in="SourceGraphic" in2="BackgroundImageFix" result="shape"/>
<feGaussianBlur stdDeviation="0.22759" result="effect1_foregroundBlur_2_3160"/>
</filter>
<filter id="filter1_d_2_3160" x="19.4915" y="12.1055" width="937.789" height="552.6" filterUnits="userSpaceOnUse" color-interpolation-filters="sRGB">
<feFlood flood-opacity="0" result="BackgroundImageFix"/>
<feColorMatrix in="SourceAlpha" type="matrix" values="0 0 0 0 0 0 0 0 0 0 0 0 0 0 0 0 0 0 127 0" result="hardAlpha"/>
<feOffset dy="6"/>
<feGaussianBlur stdDeviation="6.63282"/>
<feColorMatrix type="matrix" values="0 0 0 0 0.3 0 0 0 0 0 0 0 0 0 0.26 0 0 0 0.7 0"/>
<feBlend mode="multiply" in2="BackgroundImageFix" result="effect1_dropShadow_2_3160"/>
<feBlend mode="normal" in="SourceGraphic" in2="effect1_dropShadow_2_3160" result="shape"/>
</filter>
<filter id="filter2_f_2_3160" x="32.302" y="18.9159" width="912.168" height="526.979" filterUnits="userSpaceOnUse" color-interpolation-filters="sRGB">
<feFlood flood-opacity="0" result="BackgroundImageFix"/>
<feBlend mode="normal" in="SourceGraphic" in2="BackgroundImageFix" result="shape"/>
<feGaussianBlur stdDeviation="0.22759" result="effect1_foregroundBlur_2_3160"/>
</filter>
<filter id="filter3_bf_2_3160" x="17.5961" y="3.85547" width="941.58" height="557.1" filterUnits="userSpaceOnUse" color-interpolation-filters="sRGB">
<feFlood flood-opacity="0" result="BackgroundImageFix"/>
<feGaussianBlur in="BackgroundImageFix" stdDeviation="8"/>
<feComposite in2="SourceAlpha" operator="in" result="effect1_backgroundBlur_2_3160"/>
<feBlend mode="normal" in="SourceGraphic" in2="effect1_backgroundBlur_2_3160" result="shape"/>
<feGaussianBlur stdDeviation="0.22759" result="effect2_foregroundBlur_2_3160"/>
</filter>
<filter id="filter4_f_2_3160" x="140.379" y="83.7382" width="100.855" height="58.6086" filterUnits="userSpaceOnUse" color-interpolation-filters="sRGB">
<feFlood flood-opacity="0" result="BackgroundImageFix"/>
<feBlend mode="normal" in="SourceGraphic" in2="BackgroundImageFix" result="shape"/>
<feGaussianBlur stdDeviation="0.22759" result="effect1_foregroundBlur_2_3160"/>
</filter>
<filter id="filter5_d_2_3160" x="129.449" y="78.0137" width="122.716" height="82.0586" filterUnits="userSpaceOnUse" color-interpolation-filters="sRGB">
<feFlood flood-opacity="0" result="BackgroundImageFix"/>
<feColorMatrix in="SourceAlpha" type="matrix" values="0 0 0 0 0 0 0 0 0 0 0 0 0 0 0 0 0 0 127 0" result="hardAlpha"/>
<feOffset dy="6"/>
<feGaussianBlur stdDeviation="6.63282"/>
<feColorMatrix type="matrix" values="0 0 0 0 0.3 0 0 0 0 0 0 0 0 0 0.26 0 0 0 0.7 0"/>
<feBlend mode="multiply" in2="BackgroundImageFix" result="effect1_dropShadow_2_3160"/>
<feBlend mode="normal" in="SourceGraphic" in2="effect1_dropShadow_2_3160" result="shape"/>
</filter>
<filter id="filter6_f_2_3160" x="142.259" y="84.8241" width="97.0952" height="56.4377" filterUnits="userSpaceOnUse" color-interpolation-filters="sRGB">
<feFlood flood-opacity="0" result="BackgroundImageFix"/>
<feBlend mode="normal" in="SourceGraphic" in2="BackgroundImageFix" result="shape"/>
<feGaussianBlur stdDeviation="0.22759" result="effect1_foregroundBlur_2_3160"/>
</filter>
<filter id="filter7_bif_2_3160" x="127.554" y="69.7637" width="126.507" height="86.5586" filterUnits="userSpaceOnUse" color-interpolation-filters="sRGB">
<feFlood flood-opacity="0" result="BackgroundImageFix"/>
<feGaussianBlur in="BackgroundImageFix" stdDeviation="8"/>
<feComposite in2="SourceAlpha" operator="in" result="effect1_backgroundBlur_2_3160"/>
<feBlend mode="normal" in="SourceGraphic" in2="effect1_backgroundBlur_2_3160" result="shape"/>
<feColorMatrix in="SourceAlpha" type="matrix" values="0 0 0 0 0 0 0 0 0 0 0 0 0 0 0 0 0 0 127 0" result="hardAlpha"/>
<feOffset/>
<feGaussianBlur stdDeviation="2.5"/>
<feComposite in2="hardAlpha" operator="arithmetic" k2="-1" k3="1"/>
<feColorMatrix type="matrix" values="0 0 0 0 0 0 0 0 0 0 0 0 0 0 0 0 0 0 0.5 0"/>
<feBlend mode="normal" in2="shape" result="effect2_innerShadow_2_3160"/>
<feGaussianBlur stdDeviation="0.22759" result="effect3_foregroundBlur_2_3160"/>
</filter>
<filter id="filter8_d_2_3160" x="105.598" y="243.92" width="50.4914" height="40.3633" filterUnits="userSpaceOnUse" color-interpolation-filters="sRGB">
<feFlood flood-opacity="0" result="BackgroundImageFix"/>
<feColorMatrix in="SourceAlpha" type="matrix" values="0 0 0 0 0 0 0 0 0 0 0 0 0 0 0 0 0 0 127 0" result="hardAlpha"/>
<feOffset dy="6"/>
<feGaussianBlur stdDeviation="6.63282"/>
<feColorMatrix type="matrix" values="0 0 0 0 0.3 0 0 0 0 0 0 0 0 0 0.26 0 0 0 0.7 0"/>
<feBlend mode="multiply" in2="BackgroundImageFix" result="effect1_dropShadow_2_3160"/>
<feBlend mode="normal" in="SourceGraphic" in2="effect1_dropShadow_2_3160" result="shape"/>
</filter>
<filter id="filter9_f_2_3160" x="119.633" y="251.73" width="20.9119" height="12.4572" filterUnits="userSpaceOnUse" color-interpolation-filters="sRGB">
<feFlood flood-opacity="0" result="BackgroundImageFix"/>
<feBlend mode="normal" in="SourceGraphic" in2="BackgroundImageFix" result="shape"/>
<feGaussianBlur stdDeviation="0.22759" result="effect1_foregroundBlur_2_3160"/>
</filter>
<filter id="filter10_f_2_3160" x="119.94" y="251.98" width="20.1728" height="12.0305" filterUnits="userSpaceOnUse" color-interpolation-filters="sRGB">
<feFlood flood-opacity="0" result="BackgroundImageFix"/>
<feBlend mode="normal" in="SourceGraphic" in2="BackgroundImageFix" result="shape"/>
<feGaussianBlur stdDeviation="0.22759" result="effect1_foregroundBlur_2_3160"/>
</filter>
<filter id="filter11_d_2_3160" x="148.664" y="268.783" width="72.5267" height="53.084" filterUnits="userSpaceOnUse" color-interpolation-filters="sRGB">
<feFlood flood-opacity="0" result="BackgroundImageFix"/>
<feColorMatrix in="SourceAlpha" type="matrix" values="0 0 0 0 0 0 0 0 0 0 0 0 0 0 0 0 0 0 127 0" result="hardAlpha"/>
<feOffset dy="6"/>
<feGaussianBlur stdDeviation="6.63282"/>
<feColorMatrix type="matrix" values="0 0 0 0 0.3 0 0 0 0 0 0 0 0 0 0.26 0 0 0 0.7 0"/>
<feBlend mode="multiply" in2="BackgroundImageFix" result="effect1_dropShadow_2_3160"/>
<feBlend mode="normal" in="SourceGraphic" in2="effect1_dropShadow_2_3160" result="shape"/>
</filter>
<filter id="filter12_f_2_3160" x="162.699" y="276.594" width="41.7231" height="24.4709" filterUnits="userSpaceOnUse" color-interpolation-filters="sRGB">
<feFlood flood-opacity="0" result="BackgroundImageFix"/>
<feBlend mode="normal" in="SourceGraphic" in2="BackgroundImageFix" result="shape"/>
<feGaussianBlur stdDeviation="0.22759" result="effect1_foregroundBlur_2_3160"/>
</filter>
<filter id="filter13_f_2_3160" x="163.006" y="276.844" width="40.9839" height="24.0441" filterUnits="userSpaceOnUse" color-interpolation-filters="sRGB">
<feFlood flood-opacity="0" result="BackgroundImageFix"/>
<feBlend mode="normal" in="SourceGraphic" in2="BackgroundImageFix" result="shape"/>
<feGaussianBlur stdDeviation="0.22759" result="effect1_foregroundBlur_2_3160"/>
</filter>
<filter id="filter14_d_2_3160" x="205.758" y="301.742" width="72.5267" height="53.084" filterUnits="userSpaceOnUse" color-interpolation-filters="sRGB">
<feFlood flood-opacity="0" result="BackgroundImageFix"/>
<feColorMatrix in="SourceAlpha" type="matrix" values="0 0 0 0 0 0 0 0 0 0 0 0 0 0 0 0 0 0 127 0" result="hardAlpha"/>
<feOffset dy="6"/>
<feGaussianBlur stdDeviation="6.63282"/>
<feColorMatrix type="matrix" values="0 0 0 0 0.3 0 0 0 0 0 0 0 0 0 0.26 0 0 0 0.7 0"/>
<feBlend mode="multiply" in2="BackgroundImageFix" result="effect1_dropShadow_2_3160"/>
<feBlend mode="normal" in="SourceGraphic" in2="effect1_dropShadow_2_3160" result="shape"/>
</filter>
<filter id="filter15_f_2_3160" x="219.793" y="309.553" width="41.7231" height="24.4709" filterUnits="userSpaceOnUse" color-interpolation-filters="sRGB">
<feFlood flood-opacity="0" result="BackgroundImageFix"/>
<feBlend mode="normal" in="SourceGraphic" in2="BackgroundImageFix" result="shape"/>
<feGaussianBlur stdDeviation="0.22759" result="effect1_foregroundBlur_2_3160"/>
</filter>
<filter id="filter16_f_2_3160" x="220.099" y="309.803" width="40.9839" height="24.0441" filterUnits="userSpaceOnUse" color-interpolation-filters="sRGB">
<feFlood flood-opacity="0" result="BackgroundImageFix"/>
<feBlend mode="normal" in="SourceGraphic" in2="BackgroundImageFix" result="shape"/>
<feGaussianBlur stdDeviation="0.22759" result="effect1_foregroundBlur_2_3160"/>
</filter>
<filter id="filter17_d_2_3160" x="493.955" y="102.985" width="103.576" height="71.0098" filterUnits="userSpaceOnUse" color-interpolation-filters="sRGB">
<feFlood flood-opacity="0" result="BackgroundImageFix"/>
<feColorMatrix in="SourceAlpha" type="matrix" values="0 0 0 0 0 0 0 0 0 0 0 0 0 0 0 0 0 0 127 0" result="hardAlpha"/>
<feOffset dy="6"/>
<feGaussianBlur stdDeviation="6.63282"/>
<feColorMatrix type="matrix" values="0 0 0 0 0.3 0 0 0 0 0 0 0 0 0 0.26 0 0 0 0.7 0"/>
<feBlend mode="multiply" in2="BackgroundImageFix" result="effect1_dropShadow_2_3160"/>
<feBlend mode="normal" in="SourceGraphic" in2="effect1_dropShadow_2_3160" result="shape"/>
</filter>
<filter id="filter18_f_2_3160" x="512.448" y="112.784" width="71.0479" height="41.4006" filterUnits="userSpaceOnUse" color-interpolation-filters="sRGB">
<feFlood flood-opacity="0" result="BackgroundImageFix"/>
<feBlend mode="normal" in="SourceGraphic" in2="BackgroundImageFix" result="shape"/>
<feGaussianBlur stdDeviation="0.22759" result="effect1_foregroundBlur_2_3160"/>
</filter>
<filter id="filter19_f_2_3160" x="512.881" y="112.961" width="70.3087" height="40.9738" filterUnits="userSpaceOnUse" color-interpolation-filters="sRGB">
<feFlood flood-opacity="0" result="BackgroundImageFix"/>
<feBlend mode="normal" in="SourceGraphic" in2="BackgroundImageFix" result="shape"/>
<feGaussianBlur stdDeviation="0.22759" result="effect1_foregroundBlur_2_3160"/>
</filter>
</defs>
</svg>
