<svg width="806" height="466" viewBox="0 0 806 466" fill="none" xmlns="http://www.w3.org/2000/svg">
<g filter="url(#filter0_d_2_3198)">
<g filter="url(#filter1_di_2_3198)">
<path d="M49.8899 313.378C28.6494 300.791 28.6494 280.383 49.8898 267.796L458.502 25.6562C479.742 13.0692 514.18 13.0692 535.42 25.6562L679.342 110.943C700.583 123.53 700.583 143.938 679.342 156.525L516.892 252.791L545.532 314.017C546.787 316.7 542.621 319.168 538.094 318.425L434.775 301.453L270.73 398.665C249.49 411.252 215.052 411.252 193.812 398.665L49.8899 313.378Z" stroke="#FB37FF" stroke-opacity="0.2" stroke-width="4.44"/>
</g>
<g filter="url(#filter2_f_2_3198)">
<path d="M49.8899 313.378C28.6494 300.791 28.6494 280.383 49.8898 267.796L458.502 25.6562C479.742 13.0692 514.18 13.0692 535.42 25.6562L679.342 110.943C700.583 123.53 700.583 143.938 679.342 156.525L516.892 252.791L545.532 314.017C546.787 316.7 542.621 319.168 538.094 318.425L434.775 301.453L270.73 398.665C249.49 411.252 215.052 411.252 193.812 398.665L49.8899 313.378Z" stroke="#FB37FF" stroke-width="1.37"/>
</g>
<g filter="url(#filter3_f_2_3198)">
<path d="M49.8899 313.378C28.6494 300.791 28.6494 280.383 49.8898 267.796L458.502 25.6562C479.742 13.0692 514.18 13.0692 535.42 25.6562L679.342 110.943C700.583 123.53 700.583 143.938 679.342 156.525L516.892 252.791L545.532 314.017C546.787 316.7 542.621 319.168 538.094 318.425L434.775 301.453L270.73 398.665C249.49 411.252 215.052 411.252 193.812 398.665L49.8899 313.378Z" stroke="white" stroke-width="1.37"/>
</g>
<g filter="url(#filter4_b_2_3198)">
<path d="M49.8898 313.378C28.6494 300.791 28.6494 280.383 49.8898 267.796L458.502 25.6562C479.742 13.0692 514.18 13.0692 535.42 25.6562L679.342 110.943C700.583 123.53 700.583 143.938 679.342 156.525L516.892 252.791L545.532 314.017C546.787 316.7 542.621 319.168 538.094 318.425L434.775 301.453L270.73 398.665C249.49 411.252 215.052 411.252 193.812 398.665L49.8898 313.378Z" fill="#5B1ED0" fill-opacity="0.01"/>
</g>
<g filter="url(#filter5_bi_2_3198)">
<path d="M317.162 176.812C322.667 173.634 328.756 171.13 335.43 169.302C342.073 167.455 349.147 166.514 356.651 166.479C364.185 166.425 372.028 167.508 380.178 169.728C388.328 171.912 396.662 175.445 405.181 180.327C412.962 184.784 418.959 189.364 423.172 194.069C427.386 198.739 429.846 203.373 430.553 207.971C431.292 212.552 430.277 216.973 427.509 221.234C424.741 225.459 420.251 229.365 414.038 232.952C407.057 236.982 399.584 239.752 391.618 241.261C383.653 242.77 375.841 243.125 368.184 242.326C360.526 241.527 353.667 239.681 347.609 236.787L372.889 222.192C376.364 223.488 379.793 223.906 383.176 223.444C386.529 222.965 389.558 221.944 392.264 220.381C397.677 217.257 399.292 213.626 397.108 209.489C394.924 205.317 389.927 200.958 382.115 196.413L381.562 196.732C383.253 199.094 383.914 201.57 383.545 204.163C383.176 206.755 381.931 209.303 379.809 211.806C377.687 214.309 374.826 216.6 371.228 218.677C365.539 221.962 359.28 224.101 352.453 225.095C345.594 226.072 338.736 225.965 331.878 224.776C324.989 223.568 318.669 221.322 312.918 218.038C306.183 214.185 301.892 209.88 300.047 205.121C298.202 200.363 298.725 195.534 301.616 190.634C304.506 185.733 309.689 181.126 317.162 176.812ZM336.722 187.891C334.169 189.364 332.478 191.015 331.647 192.844C330.848 194.655 330.878 196.466 331.74 198.277C332.631 200.07 334.354 201.686 336.906 203.124C339.459 204.562 342.288 205.539 345.394 206.053C348.531 206.551 351.653 206.577 354.759 206.133C357.896 205.672 360.741 204.704 363.294 203.231C365.17 202.147 366.584 200.958 367.538 199.662C368.46 198.348 368.906 197.008 368.875 195.64C368.845 194.238 368.353 192.889 367.399 191.592C366.446 190.261 365.016 189.062 363.109 187.997C360.556 186.559 357.712 185.591 354.575 185.094C351.438 184.597 348.301 184.579 345.164 185.041C342.027 185.503 339.213 186.452 336.722 187.891ZM406.092 125.472C411.597 122.294 417.687 119.791 424.36 117.962C431.003 116.116 438.077 115.175 445.581 115.139C453.116 115.086 460.958 116.169 469.108 118.388C477.258 120.572 485.592 124.105 494.111 128.988C501.892 133.444 507.889 138.025 512.103 142.73C516.316 147.399 518.776 152.033 519.484 156.632C520.222 161.212 519.207 165.633 516.439 169.894C513.671 174.12 509.181 178.026 502.969 181.612C495.987 185.642 488.514 188.412 480.549 189.921C472.583 191.43 464.772 191.786 457.114 190.987C449.456 190.188 442.598 188.341 436.539 185.447L461.819 170.853C465.294 172.149 468.724 172.566 472.107 172.105C475.459 171.625 478.488 170.604 481.194 169.042C486.607 165.917 488.222 162.286 486.038 158.15C483.855 153.977 478.857 149.619 471.045 145.073L470.492 145.393C472.183 147.754 472.845 150.231 472.476 152.823C472.107 155.415 470.861 157.963 468.739 160.467C466.617 162.97 463.757 165.26 460.158 167.338C454.469 170.622 448.21 172.762 441.383 173.756C434.525 174.732 427.666 174.626 420.808 173.436C413.919 172.229 407.599 169.983 401.848 166.698C395.113 162.846 390.823 158.54 388.977 153.782C387.132 149.024 387.655 144.195 390.546 139.294C393.437 134.394 398.619 129.787 406.092 125.472ZM425.652 136.551C423.099 138.025 421.408 139.676 420.577 141.505C419.778 143.316 419.809 145.127 420.67 146.938C421.562 148.731 423.284 150.346 425.837 151.785C428.389 153.223 431.219 154.199 434.325 154.714C437.462 155.211 440.583 155.238 443.689 154.794C446.826 154.332 449.671 153.365 452.224 151.891C454.1 150.808 455.515 149.619 456.468 148.322C457.391 147.009 457.836 145.668 457.806 144.301C457.775 142.898 457.283 141.549 456.33 140.253C455.376 138.921 453.946 137.723 452.039 136.658C449.487 135.22 446.642 134.252 443.505 133.755C440.368 133.258 437.231 133.24 434.094 133.702C430.957 134.163 428.143 135.113 425.652 136.551ZM495.022 74.1329C500.527 70.9549 506.617 68.4515 513.291 66.6228C519.933 64.7763 527.007 63.8353 534.511 63.7998C542.046 63.7465 549.888 64.8296 558.038 67.0489C566.188 69.2327 574.523 72.7658 583.042 77.6483C590.822 82.1047 596.82 86.6854 601.033 91.3903C605.246 96.0598 607.707 100.694 608.414 105.292C609.152 109.873 608.137 114.294 605.369 118.555C602.601 122.78 598.111 126.686 591.899 130.273C584.918 134.303 577.444 137.073 569.479 138.582C561.513 140.091 553.702 140.446 546.044 139.647C538.386 138.848 531.528 137.002 525.469 134.108L550.749 119.513C554.225 120.81 557.654 121.227 561.037 120.765C564.389 120.286 567.418 119.265 570.125 117.703C575.537 114.578 577.152 110.947 574.969 106.81C572.785 102.638 567.787 98.2791 559.976 93.7339L559.422 94.0535C561.114 96.4149 561.775 98.8916 561.406 101.484C561.037 104.076 559.791 106.624 557.669 109.127C555.547 111.63 552.687 113.921 549.089 115.998C543.399 119.283 537.141 121.422 530.313 122.416C523.455 123.393 516.597 123.286 509.738 122.097C502.849 120.889 496.529 118.644 490.778 115.359C484.043 111.506 479.753 107.201 477.908 102.443C476.062 97.6843 476.585 92.8551 479.476 87.9548C482.367 83.0546 487.549 78.4473 495.022 74.1329ZM514.582 85.2118C512.03 86.6854 510.338 88.3366 509.508 90.1653C508.708 91.9762 508.739 93.7872 509.6 95.5982C510.492 97.3914 512.214 99.007 514.767 100.445C517.319 101.883 520.149 102.86 523.255 103.375C526.392 103.872 529.513 103.898 532.62 103.455C535.757 102.993 538.601 102.025 541.154 100.552C543.03 99.4686 544.445 98.2791 545.398 96.983C546.321 95.6692 546.767 94.3287 546.736 92.9616C546.705 91.559 546.213 90.2097 545.26 88.9136C544.306 87.582 542.876 86.3836 540.97 85.3183C538.417 83.8802 535.572 82.9125 532.435 82.4154C529.298 81.9183 526.161 81.9005 523.024 82.3622C519.887 82.8238 517.073 83.7736 514.582 85.2118Z" fill="white" fill-opacity="0.7"/>
</g>
<g filter="url(#filter6_bi_2_3198)">
<path d="M315.151 343.865L157.074 343.865C144.464 343.865 132.931 342.06 122.475 338.45C112.07 334.811 103.792 330.002 97.6407 324.025C91.4386 318.018 88.3887 311.434 88.4913 304.273C88.5938 296.934 91.7205 290.306 97.8714 284.388C104.022 278.41 112.249 273.661 122.552 270.14C132.906 266.589 144.413 264.769 157.074 264.68L177.679 264.503L177.987 252.607C178.192 245.269 181.344 238.625 187.444 232.678C193.543 226.73 201.744 221.995 212.047 218.474C222.35 214.894 233.857 213.074 246.569 213.014C258.973 212.955 270.378 214.716 280.783 218.296C291.137 221.847 299.441 226.641 305.694 232.678C311.999 238.685 315.151 245.328 315.151 252.607L315.151 343.865Z" fill="#FF5353" fill-opacity="0.5"/>
</g>
</g>
<defs>
<filter id="filter0_d_2_3198" x="27.2762" y="14.626" width="674.68" height="440.069" filterUnits="userSpaceOnUse" color-interpolation-filters="sRGB">
<feFlood flood-opacity="0" result="BackgroundImageFix"/>
<feColorMatrix in="SourceAlpha" type="matrix" values="0 0 0 0 0 0 0 0 0 0 0 0 0 0 0 0 0 0 127 0" result="hardAlpha"/>
<feOffset dy="41"/>
<feGaussianBlur stdDeviation="2"/>
<feComposite in2="hardAlpha" operator="out"/>
<feColorMatrix type="matrix" values="0 0 0 0 0 0 0 0 0 0 0 0 0 0 0 0 0 0 0.4 0"/>
<feBlend mode="normal" in2="BackgroundImageFix" result="effect1_dropShadow_2_3198"/>
<feBlend mode="normal" in="SourceGraphic" in2="effect1_dropShadow_2_3198" result="shape"/>
</filter>
<filter id="filter1_di_2_3198" x="18.0106" y="6.36034" width="693.211" height="421.601" filterUnits="userSpaceOnUse" color-interpolation-filters="sRGB">
<feFlood flood-opacity="0" result="BackgroundImageFix"/>
<feColorMatrix in="SourceAlpha" type="matrix" values="0 0 0 0 0 0 0 0 0 0 0 0 0 0 0 0 0 0 127 0" result="hardAlpha"/>
<feOffset dy="5"/>
<feGaussianBlur stdDeviation="6.63282"/>
<feColorMatrix type="matrix" values="0 0 0 0 0.3 0 0 0 0 0 0 0 0 0 0.26 0 0 0 0.7 0"/>
<feBlend mode="multiply" in2="BackgroundImageFix" result="effect1_dropShadow_2_3198"/>
<feBlend mode="normal" in="SourceGraphic" in2="effect1_dropShadow_2_3198" result="shape"/>
<feColorMatrix in="SourceAlpha" type="matrix" values="0 0 0 0 0 0 0 0 0 0 0 0 0 0 0 0 0 0 127 0" result="hardAlpha"/>
<feOffset dx="-1.72453" dy="3.44906"/>
<feGaussianBlur stdDeviation="0.862266"/>
<feComposite in2="hardAlpha" operator="arithmetic" k2="-1" k3="1"/>
<feColorMatrix type="matrix" values="0 0 0 0 1 0 0 0 0 1 0 0 0 0 1 0 0 0 0.5 0"/>
<feBlend mode="normal" in2="shape" result="effect2_innerShadow_2_3198"/>
</filter>
<filter id="filter2_f_2_3198" x="32.6764" y="15.2704" width="663.879" height="393.78" filterUnits="userSpaceOnUse" color-interpolation-filters="sRGB">
<feFlood flood-opacity="0" result="BackgroundImageFix"/>
<feBlend mode="normal" in="SourceGraphic" in2="BackgroundImageFix" result="shape"/>
<feGaussianBlur stdDeviation="0.22759" result="effect1_foregroundBlur_2_3198"/>
</filter>
<filter id="filter3_f_2_3198" x="32.6764" y="15.2704" width="663.879" height="393.78" filterUnits="userSpaceOnUse" color-interpolation-filters="sRGB">
<feFlood flood-opacity="0" result="BackgroundImageFix"/>
<feBlend mode="normal" in="SourceGraphic" in2="BackgroundImageFix" result="shape"/>
<feGaussianBlur stdDeviation="0.22759" result="effect1_foregroundBlur_2_3198"/>
</filter>
<filter id="filter4_b_2_3198" x="23.9595" y="6.21582" width="681.313" height="411.889" filterUnits="userSpaceOnUse" color-interpolation-filters="sRGB">
<feFlood flood-opacity="0" result="BackgroundImageFix"/>
<feGaussianBlur in="BackgroundImageFix" stdDeviation="5"/>
<feComposite in2="SourceAlpha" operator="in" result="effect1_backgroundBlur_2_3198"/>
<feBlend mode="normal" in="SourceGraphic" in2="effect1_backgroundBlur_2_3198" result="shape"/>
</filter>
<filter id="filter5_bi_2_3198" x="274.288" y="45.457" width="363.807" height="214.253" filterUnits="userSpaceOnUse" color-interpolation-filters="sRGB">
<feFlood flood-opacity="0" result="BackgroundImageFix"/>
<feGaussianBlur in="BackgroundImageFix" stdDeviation="2.5"/>
<feComposite in2="SourceAlpha" operator="in" result="effect1_backgroundBlur_2_3198"/>
<feBlend mode="normal" in="SourceGraphic" in2="effect1_backgroundBlur_2_3198" result="shape"/>
<feColorMatrix in="SourceAlpha" type="matrix" values="0 0 0 0 0 0 0 0 0 0 0 0 0 0 0 0 0 0 127 0" result="hardAlpha"/>
<feOffset/>
<feGaussianBlur stdDeviation="10"/>
<feComposite in2="hardAlpha" operator="arithmetic" k2="-1" k3="1"/>
<feColorMatrix type="matrix" values="0 0 0 0 0 0 0 0 0 0 0 0 0 0 0 0 0 0 0.6 0"/>
<feBlend mode="normal" in2="shape" result="effect2_innerShadow_2_3198"/>
</filter>
<filter id="filter6_bi_2_3198" x="52.1218" y="189.905" width="362.753" height="213.644" filterUnits="userSpaceOnUse" color-interpolation-filters="sRGB">
<feFlood flood-opacity="0" result="BackgroundImageFix"/>
<feGaussianBlur in="BackgroundImageFix" stdDeviation="2.5"/>
<feComposite in2="SourceAlpha" operator="in" result="effect1_backgroundBlur_2_3198"/>
<feBlend mode="normal" in="SourceGraphic" in2="effect1_backgroundBlur_2_3198" result="shape"/>
<feColorMatrix in="SourceAlpha" type="matrix" values="0 0 0 0 0 0 0 0 0 0 0 0 0 0 0 0 0 0 127 0" result="hardAlpha"/>
<feOffset/>
<feGaussianBlur stdDeviation="10"/>
<feComposite in2="hardAlpha" operator="arithmetic" k2="-1" k3="1"/>
<feColorMatrix type="matrix" values="0 0 0 0 0 0 0 0 0 0 0 0 0 0 0 0 0 0 0.9 0"/>
<feBlend mode="normal" in2="shape" result="effect2_innerShadow_2_3198"/>
</filter>
</defs>
</svg>
