<svg width="2560" height="1399" viewBox="0 0 2560 1399" fill="none" xmlns="http://www.w3.org/2000/svg">
<path d="M1299.67 861.677C1397.49 809.704 1468.01 751.051 1457.19 730.671C1446.36 710.292 1358.28 735.904 1260.46 787.877C1162.64 839.85 1092.12 898.503 1102.95 918.882C1113.78 939.262 1201.85 913.65 1299.67 861.677Z" stroke="url(#paint0_linear_2_3457)" stroke-opacity="0.1" stroke-width="2" stroke-miterlimit="10"/>
<path d="M1301.18 862.588C1405.69 804.395 1481 740.331 1469.4 719.497C1457.8 698.662 1363.68 728.947 1259.17 787.14C1154.66 845.333 1079.34 909.398 1090.95 930.232C1102.55 951.066 1196.67 920.781 1301.18 862.588Z" stroke="url(#paint1_linear_2_3457)" stroke-opacity="0.1" stroke-width="2" stroke-miterlimit="10"/>
<path d="M1303.13 863.216C1414.83 798.2 1495.33 728.248 1482.95 706.973C1470.57 685.698 1369.98 721.156 1258.29 786.172C1146.59 851.189 1066.09 921.142 1078.47 942.417C1090.85 963.692 1191.44 928.233 1303.13 863.216Z" stroke="url(#paint2_linear_2_3457)" stroke-opacity="0.1" stroke-width="2" stroke-miterlimit="10"/>
<path d="M1303.47 864.469C1422.49 792.222 1508.29 716.064 1495.12 694.365C1481.94 672.666 1374.79 713.643 1255.77 785.89C1136.76 858.137 1050.95 934.296 1064.13 955.994C1077.3 977.693 1184.46 936.715 1303.47 864.469Z" stroke="url(#paint3_linear_2_3457)" stroke-opacity="0.1" stroke-width="2" stroke-miterlimit="10"/>
<path d="M1305.69 865.128C1432.17 785.203 1523.38 702.487 1509.41 680.377C1495.44 658.266 1381.58 705.134 1255.09 785.059C1128.61 864.984 1037.4 947.699 1051.37 969.81C1065.34 991.92 1179.2 945.053 1305.69 865.128Z" stroke="url(#paint4_linear_2_3457)" stroke-opacity="0.1" stroke-width="2" stroke-miterlimit="10"/>
<path d="M1306.84 865.469C1441.23 777.223 1538.19 687.441 1523.41 664.936C1508.64 642.431 1387.71 695.725 1253.33 783.971C1118.94 872.218 1021.98 962 1036.76 984.505C1051.53 1007.01 1172.46 953.716 1306.84 865.469Z" stroke="url(#paint5_linear_2_3457)" stroke-opacity="0.1" stroke-width="2" stroke-miterlimit="10"/>
<path d="M1308.05 867.205C1450.45 770.196 1553.07 672.745 1537.26 649.542C1521.45 626.339 1393.2 686.171 1250.81 783.181C1108.41 880.19 1005.79 977.642 1021.6 1000.84C1037.41 1024.05 1165.66 964.215 1308.05 867.205Z" stroke="url(#paint6_linear_2_3457)" stroke-opacity="0.1" stroke-width="2" stroke-miterlimit="10"/>
<path d="M1309.96 868.248C1460.77 761.78 1569.36 656.113 1552.51 632.235C1535.65 608.356 1399.73 675.308 1248.91 781.776C1098.1 888.243 989.508 993.91 1006.37 1017.79C1023.22 1041.67 1159.15 974.716 1309.96 868.248Z" stroke="url(#paint7_linear_2_3457)" stroke-opacity="0.1" stroke-width="2" stroke-miterlimit="10"/>
<path d="M1312.38 869.08C1471.38 752.895 1585.74 638.822 1567.81 614.289C1549.88 589.756 1406.46 664.055 1247.46 780.24C1088.47 896.425 974.107 1010.5 992.034 1035.03C1009.96 1059.56 1153.39 985.265 1312.38 869.08Z" stroke="url(#paint8_linear_2_3457)" stroke-opacity="0.1" stroke-width="2" stroke-miterlimit="10"/>
<path d="M1314.53 871.169C1482.09 744.581 1602.51 621.561 1583.5 596.396C1564.49 571.232 1413.24 653.452 1245.68 780.04C1078.12 906.628 957.703 1029.65 976.714 1054.81C995.726 1079.98 1146.97 997.757 1314.53 871.169Z" stroke="url(#paint9_linear_2_3457)" stroke-opacity="0.1" stroke-width="2" stroke-miterlimit="10"/>
<path d="M1317.6 871.895C1494.05 734.14 1620.6 601.33 1600.24 575.255C1579.89 549.18 1420.34 639.715 1243.88 777.47C1067.42 915.225 940.877 1048.04 961.232 1074.11C981.588 1100.19 1141.14 1009.65 1317.6 871.895Z" stroke="url(#paint10_linear_2_3457)" stroke-opacity="0.1" stroke-width="2" stroke-miterlimit="10"/>
<path d="M1319.19 874.122C1504.26 724.97 1636.68 582.21 1614.96 555.258C1593.24 528.307 1425.6 627.37 1240.53 776.522C1055.47 925.674 923.049 1068.43 944.77 1095.39C966.491 1122.34 1134.13 1023.27 1319.19 874.122Z" stroke="url(#paint11_linear_2_3457)" stroke-opacity="0.1" stroke-width="2" stroke-miterlimit="10"/>
<path d="M1321.15 875.279C1515.13 713.953 1653.64 560.641 1630.52 532.846C1607.4 505.051 1431.41 613.298 1237.44 774.624C1043.46 935.95 904.958 1089.26 928.074 1117.06C951.191 1144.85 1127.18 1036.61 1321.15 875.279Z" stroke="url(#paint12_linear_2_3457)" stroke-opacity="0.1" stroke-width="2" stroke-miterlimit="10"/>
<path d="M1324.43 876.407C1527.32 702.362 1671.89 538.08 1647.35 509.471C1622.81 480.863 1438.44 598.762 1235.56 772.806C1032.67 946.851 888.093 1111.13 912.634 1139.74C937.176 1168.35 1121.54 1050.45 1324.43 876.407Z" stroke="url(#paint13_linear_2_3457)" stroke-opacity="0.1" stroke-width="2" stroke-miterlimit="10"/>
<path d="M1327.86 878.793C1539.91 691.255 1690.54 515.167 1664.29 485.491C1638.05 455.816 1444.87 583.789 1232.82 771.327C1020.76 958.866 870.135 1134.95 896.38 1164.63C922.625 1194.31 1115.8 1066.33 1327.86 878.793Z" stroke="url(#paint14_linear_2_3457)" stroke-opacity="0.1" stroke-width="2" stroke-miterlimit="10"/>
<path d="M1331.1 881.188C1551.95 679.855 1708.08 491.527 1679.84 460.546C1651.59 429.565 1449.67 567.662 1228.82 768.995C1007.97 970.328 851.834 1158.66 880.077 1189.64C908.321 1220.62 1110.25 1082.52 1331.1 881.188Z" stroke="url(#paint15_linear_2_3457)" stroke-opacity="0.1" stroke-width="2" stroke-miterlimit="10"/>
<path d="M1335.37 883.069C1564.95 667.356 1726.5 466.355 1696.21 434.119C1665.92 401.884 1455.26 550.621 1225.69 766.334C996.113 982.046 834.562 1183.05 864.852 1215.28C895.141 1247.52 1105.8 1098.78 1335.37 883.069Z" stroke="url(#paint16_linear_2_3457)" stroke-opacity="0.1" stroke-width="2" stroke-miterlimit="10"/>
<path d="M1339.12 885.183C1577.3 654.531 1744.13 440.448 1711.75 407.015C1679.38 373.581 1460.05 533.458 1221.87 764.11C983.693 994.762 816.858 1208.85 849.235 1242.28C881.612 1275.71 1100.94 1115.83 1339.12 885.183Z" stroke="url(#paint17_linear_2_3457)" stroke-opacity="0.1" stroke-width="2" stroke-miterlimit="10"/>
<path d="M1342.92 888.396C1589.83 641.971 1761.8 413.956 1727.03 379.11C1692.25 344.265 1463.89 515.784 1216.98 762.209C970.066 1008.63 798.094 1236.65 832.871 1271.5C867.648 1306.34 1096 1134.82 1342.92 888.396Z" stroke="url(#paint18_linear_2_3457)" stroke-opacity="0.1" stroke-width="2" stroke-miterlimit="10"/>
<path d="M1347.67 890.568C1602.61 628.274 1779.1 386.305 1741.86 350.115C1704.63 313.924 1467.77 497.217 1212.83 759.511C957.889 1021.8 781.402 1263.77 818.636 1299.96C855.87 1336.15 1092.73 1152.86 1347.67 890.568Z" stroke="url(#paint19_linear_2_3457)" stroke-opacity="0.1" stroke-width="2" stroke-miterlimit="10"/>
<path d="M1352.9 893.389C1615.91 614.344 1796.46 357.337 1756.16 319.349C1715.85 281.36 1469.96 476.776 1206.95 755.821C943.929 1034.87 763.384 1291.87 803.688 1329.86C843.991 1367.85 1089.88 1172.43 1352.9 893.389Z" stroke="url(#paint20_linear_2_3457)" stroke-opacity="0.1" stroke-width="2" stroke-miterlimit="10"/>
<path d="M1358.28 896.399C1628.9 600.266 1813.29 328.233 1770.14 288.795C1726.98 249.356 1472.62 457.448 1202 753.58C931.377 1049.71 746.982 1321.75 790.139 1361.18C833.295 1400.62 1087.66 1192.53 1358.28 896.399Z" stroke="url(#paint21_linear_2_3457)" stroke-opacity="0.1" stroke-width="2" stroke-miterlimit="10"/>
<path d="M1364.18 899.112C1641.84 585.521 1829.1 297.822 1782.45 256.518C1735.8 215.214 1472.9 435.947 1195.25 749.537C917.597 1063.13 730.331 1350.83 776.981 1392.13C823.631 1433.43 1086.53 1212.7 1364.18 899.112Z" stroke="url(#paint22_linear_2_3457)" stroke-opacity="0.1" stroke-width="2" stroke-miterlimit="10"/>
<path d="M1371.73 903.646C1656.16 571.977 1845.8 267.991 1795.29 224.674C1744.78 181.358 1473.25 415.114 1188.82 746.783C904.378 1078.45 714.742 1382.44 765.252 1425.75C815.761 1469.07 1087.29 1235.31 1371.73 903.646Z" stroke="url(#paint23_linear_2_3457)" stroke-opacity="0.1" stroke-width="2" stroke-miterlimit="10"/>
<path d="M1378.29 907.002C1668.61 557.175 1859.81 236.948 1805.35 191.755C1750.89 146.562 1471.4 393.516 1181.08 743.343C890.763 1093.17 699.559 1413.4 754.017 1458.59C808.474 1503.78 1087.97 1256.83 1378.29 907.002Z" stroke="url(#paint24_linear_2_3457)" stroke-opacity="0.1" stroke-width="2" stroke-miterlimit="10"/>
<path d="M1386.88 910.052C1682.69 541.351 1874.59 204.022 1815.49 156.605C1756.39 109.189 1468.67 369.641 1172.86 738.342C877.05 1107.04 685.157 1444.37 744.257 1491.79C803.358 1539.21 1091.07 1278.75 1386.88 910.052Z" stroke="url(#paint25_linear_2_3457)" stroke-opacity="0.1" stroke-width="2" stroke-miterlimit="10"/>
<path d="M1396.09 914.678C1696.5 527.077 1888.03 172.562 1823.88 122.847C1759.74 73.1325 1464.21 347.043 1163.8 734.644C863.389 1122.24 671.858 1476.76 736.002 1526.47C800.146 1576.19 1095.68 1302.28 1396.09 914.678Z" stroke="url(#paint26_linear_2_3457)" stroke-opacity="0.1" stroke-width="2" stroke-miterlimit="10"/>
<path d="M1406.48 919.993C1710.77 513.124 1900.76 140.903 1830.85 88.6148C1760.93 36.3261 1457.58 323.77 1153.29 730.639C849.003 1137.51 659.007 1509.73 728.923 1562.02C798.839 1614.31 1102.19 1326.86 1406.48 919.993Z" stroke="url(#paint27_linear_2_3457)" stroke-opacity="0.1" stroke-width="2" stroke-miterlimit="10"/>
<path d="M1417.04 923.851C1723.96 497.918 1911.29 108.338 1835.47 53.7001C1759.64 -0.93759 1449.37 300.057 1142.45 725.99C835.536 1151.92 648.2 1541.5 724.026 1596.14C799.851 1650.78 1110.12 1349.78 1417.04 923.851Z" stroke="url(#paint28_linear_2_3457)" stroke-opacity="0.1" stroke-width="2" stroke-miterlimit="10"/>
<path d="M1429.33 928.786C1738.06 483.433 1921.21 75.8636 1838.39 18.4552C1755.58 -38.9531 1438.17 275.538 1129.44 720.892C820.703 1166.25 637.557 1573.81 720.369 1631.22C803.182 1688.63 1120.59 1374.14 1429.33 928.786Z" stroke="url(#paint29_linear_2_3457)" stroke-opacity="0.1" stroke-width="2" stroke-miterlimit="10"/>
<path d="M1443.97 933.652C1753.47 468.787 1930.92 43.0396 1840.32 -17.2831C1749.72 -77.6057 1425.37 250.34 1115.87 715.204C806.37 1180.07 628.919 1605.82 719.522 1666.14C810.126 1726.46 1134.47 1398.52 1443.97 933.652Z" stroke="url(#paint30_linear_2_3457)" stroke-opacity="0.1" stroke-width="2" stroke-miterlimit="10"/>
<path d="M1459.39 938.689C1768.53 454.287 1938.98 10.4398 1840.09 -52.6718C1741.2 -115.783 1410.42 225.74 1101.28 710.141C792.132 1194.54 621.688 1638.39 720.579 1701.5C819.469 1764.61 1150.25 1423.09 1459.39 938.689Z" stroke="url(#paint31_linear_2_3457)" stroke-opacity="0.1" stroke-width="2" stroke-miterlimit="10"/>
<path d="M1477.01 944.593C1784.2 441.296 1945.13 -20.4753 1836.46 -86.8028C1727.79 -153.13 1390.67 201.103 1083.48 704.4C776.288 1207.7 615.356 1669.47 724.026 1735.8C832.696 1802.12 1169.82 1447.89 1477.01 944.593Z" stroke="url(#paint32_linear_2_3457)" stroke-opacity="0.1" stroke-width="2" stroke-miterlimit="10"/>
<path d="M1495.79 950.409C1799.84 428.232 1949.86 -51.2446 1830.87 -120.531C1711.87 -189.818 1368.93 177.322 1064.88 699.499C760.829 1221.68 610.811 1701.15 729.805 1770.44C848.799 1839.73 1191.74 1472.59 1495.79 950.409Z" stroke="url(#paint33_linear_2_3457)" stroke-opacity="0.1" stroke-width="2" stroke-miterlimit="10"/>
<path d="M1516.34 956.018C1815.73 415.323 1952.34 -81.748 1821.46 -154.222C1690.57 -226.696 1341.76 152.872 1042.36 693.567C742.967 1234.26 606.36 1731.33 737.244 1803.81C868.128 1876.28 1216.94 1496.71 1516.34 956.018Z" stroke="url(#paint34_linear_2_3457)" stroke-opacity="0.1" stroke-width="2" stroke-miterlimit="10"/>
<path d="M1541.52 962.668C1834.88 403.843 1955.65 -110.62 1811.26 -186.418C1666.87 -262.217 1312 129.353 1018.64 688.178C725.283 1247 604.517 1761.47 748.906 1837.26C893.295 1913.06 1248.16 1521.49 1541.52 962.668Z" stroke="url(#paint35_linear_2_3457)" stroke-opacity="0.1" stroke-width="2" stroke-miterlimit="10"/>
<path d="M1568.64 967.973C1854.23 391.775 1956.68 -139.298 1797.47 -218.211C1638.26 -297.124 1277.67 106.004 992.082 682.203C706.491 1258.4 604.041 1789.47 763.253 1868.39C922.466 1947.3 1283.05 1544.17 1568.64 967.973Z" stroke="url(#paint36_linear_2_3457)" stroke-opacity="0.1" stroke-width="2" stroke-miterlimit="10"/>
<path d="M1599.25 973.3C1875.53 380.238 1956.77 -167.026 1780.7 -249.05C1604.63 -331.074 1237.92 83.2036 961.639 676.265C685.357 1269.33 604.119 1816.59 780.19 1898.61C956.26 1980.64 1322.96 1566.36 1599.25 973.3Z" stroke="url(#paint37_linear_2_3457)" stroke-opacity="0.1" stroke-width="2" stroke-miterlimit="10"/>
<path d="M1632.03 978.254C1897.26 369.286 1954.48 -193.103 1759.83 -277.878C1565.19 -362.652 1192.39 62.2899 927.161 671.258C661.933 1280.23 604.714 1842.62 799.358 1927.39C994.002 2012.17 1366.8 1587.22 1632.03 978.254Z" stroke="url(#paint38_linear_2_3457)" stroke-opacity="0.1" stroke-width="2" stroke-miterlimit="10"/>
<path d="M1670.87 983.682C1923.41 359.805 1953 -216.839 1736.96 -304.29C1520.92 -391.74 1141.06 43.1185 888.521 666.995C635.982 1290.87 606.393 1867.52 822.433 1954.97C1038.47 2042.42 1418.33 1607.56 1670.87 983.682Z" stroke="url(#paint39_linear_2_3457)" stroke-opacity="0.1" stroke-width="2" stroke-miterlimit="10"/>
<path d="M1713.42 986.834C1951.55 349.088 1950.36 -240.435 1710.76 -329.904C1471.15 -419.372 1083.87 25.0948 845.733 662.841C607.599 1300.59 608.792 1890.11 848.397 1979.58C1088 2069.05 1475.29 1624.58 1713.42 986.834Z" stroke="url(#paint40_linear_2_3457)" stroke-opacity="0.1" stroke-width="2" stroke-miterlimit="10"/>
<path d="M1762.17 989.965C1984.31 339.564 1948.41 -261.454 1681.99 -352.447C1415.57 -443.441 1019.51 10.0479 797.374 660.448C575.236 1310.85 611.134 1911.87 877.554 2002.86C1143.97 2093.86 1540.03 1640.37 1762.17 989.965Z" stroke="url(#paint41_linear_2_3457)" stroke-opacity="0.1" stroke-width="2" stroke-miterlimit="10"/>
<path d="M1816.86 990.892C2021.41 329.093 1946.84 -281.704 1650.3 -373.361C1353.75 -465.018 947.536 -2.82599 742.983 658.974C538.431 1320.77 613.003 1931.57 909.546 2023.23C1206.09 2114.88 1612.31 1652.69 1816.86 990.892Z" stroke="url(#paint42_linear_2_3457)" stroke-opacity="0.1" stroke-width="2" stroke-miterlimit="10"/>
<path d="M1877.35 989.999C2062.9 317.863 1945.54 -300.935 1615.22 -392.126C1284.9 -483.317 866.7 -12.3677 681.146 659.769C495.593 1331.9 612.95 1950.7 943.272 2041.89C1273.59 2133.09 1691.79 1662.14 1877.35 989.999Z" stroke="url(#paint43_linear_2_3457)" stroke-opacity="0.1" stroke-width="2" stroke-miterlimit="10"/>
<path d="M1946.6 986.686C2111.84 305.677 1947.34 -318.808 1579.17 -408.14C1211.01 -497.472 778.599 -17.8236 613.357 663.185C448.116 1344.19 612.616 1968.68 980.78 2058.01C1348.94 2147.34 1781.35 1667.69 1946.6 986.686Z" stroke="url(#paint44_linear_2_3457)" stroke-opacity="0.1" stroke-width="2" stroke-miterlimit="10"/>
<path d="M2022.87 979.954C2166.51 291.711 1950.27 -335.653 1539.88 -421.302C1129.5 -506.951 680.37 -18.4518 536.731 669.791C393.092 1358.03 609.333 1985.4 1019.72 2071.05C1430.1 2156.7 1879.23 1668.2 2022.87 979.954Z" stroke="url(#paint45_linear_2_3457)" stroke-opacity="0.1" stroke-width="2" stroke-miterlimit="10"/>
<path d="M2109.1 969.795C2230.22 275.298 1957.07 -352.464 1498.99 -432.351C1040.92 -512.238 571.395 -13.999 450.276 680.498C329.156 1374.99 602.311 2002.76 1060.38 2082.64C1518.46 2162.53 1987.98 1664.29 2109.1 969.795Z" stroke="url(#paint46_linear_2_3457)" stroke-opacity="0.1" stroke-width="2" stroke-miterlimit="10"/>
<path d="M2204.77 953.7C2302.51 254.324 1967.63 -370.5 1456.81 -441.882C945.995 -513.265 452.667 -4.17568 354.935 695.201C257.203 1394.58 592.077 2019.4 1102.9 2090.78C1613.71 2162.17 2107.04 1653.08 2204.77 953.7Z" stroke="url(#paint47_linear_2_3457)" stroke-opacity="0.1" stroke-width="2" stroke-miterlimit="10"/>
<path d="M2310.5 933.171C2384.19 230.517 1982.22 -387.518 1412.68 -447.25C843.137 -506.982 321.691 14.2088 247.999 716.863C174.307 1419.52 576.274 2037.55 1145.82 2097.29C1715.36 2157.02 2236.81 1635.83 2310.5 933.171Z" stroke="url(#paint48_linear_2_3457)" stroke-opacity="0.1" stroke-width="2" stroke-miterlimit="10"/>
<path d="M2429.2 904.822C2478.51 199.594 2004.02 -408.08 1369.39 -452.456C734.762 -496.831 180.318 38.8944 131.006 744.122C81.6932 1449.35 556.186 2057.02 1190.81 2101.4C1825.44 2145.78 2379.89 1610.05 2429.2 904.822Z" stroke="url(#paint49_linear_2_3457)" stroke-opacity="0.1" stroke-width="2" stroke-miterlimit="10"/>
<path d="M1280 2104.9C1986.92 2104.9 2560 1531.83 2560 824.902C2560 117.978 1986.92 -455.098 1280 -455.098C573.076 -455.098 0 117.978 0 824.902C0 1531.83 573.076 2104.9 1280 2104.9Z" stroke="url(#paint50_linear_2_3457)" stroke-opacity="0.1" stroke-width="2" stroke-miterlimit="10"/>
<defs>
<linearGradient id="paint0_linear_2_3457" x1="1260.46" y1="787.877" x2="1299.67" y2="861.677" gradientUnits="userSpaceOnUse">
<stop stop-color="#03BFC0"/>
<stop offset="1" stop-color="#8C5F80"/>
</linearGradient>
<linearGradient id="paint1_linear_2_3457" x1="1259.17" y1="787.14" x2="1301.18" y2="862.588" gradientUnits="userSpaceOnUse">
<stop stop-color="#03BFC0"/>
<stop offset="1" stop-color="#8C5F80"/>
</linearGradient>
<linearGradient id="paint2_linear_2_3457" x1="1258.29" y1="786.172" x2="1303.13" y2="863.216" gradientUnits="userSpaceOnUse">
<stop stop-color="#03BFC0"/>
<stop offset="1" stop-color="#8C5F80"/>
</linearGradient>
<linearGradient id="paint3_linear_2_3457" x1="1255.77" y1="785.89" x2="1303.47" y2="864.469" gradientUnits="userSpaceOnUse">
<stop stop-color="#03BFC0"/>
<stop offset="1" stop-color="#8C5F80"/>
</linearGradient>
<linearGradient id="paint4_linear_2_3457" x1="1255.09" y1="785.059" x2="1305.69" y2="865.128" gradientUnits="userSpaceOnUse">
<stop stop-color="#03BFC0"/>
<stop offset="1" stop-color="#8C5F80"/>
</linearGradient>
<linearGradient id="paint5_linear_2_3457" x1="1253.33" y1="783.972" x2="1306.84" y2="865.47" gradientUnits="userSpaceOnUse">
<stop stop-color="#03BFC0"/>
<stop offset="1" stop-color="#8C5F80"/>
</linearGradient>
<linearGradient id="paint6_linear_2_3457" x1="1250.81" y1="783.181" x2="1308.05" y2="867.206" gradientUnits="userSpaceOnUse">
<stop stop-color="#03BFC0"/>
<stop offset="1" stop-color="#8C5F80"/>
</linearGradient>
<linearGradient id="paint7_linear_2_3457" x1="1248.91" y1="781.776" x2="1309.96" y2="868.248" gradientUnits="userSpaceOnUse">
<stop stop-color="#03BFC0"/>
<stop offset="1" stop-color="#8C5F80"/>
</linearGradient>
<linearGradient id="paint8_linear_2_3457" x1="1247.46" y1="780.24" x2="1312.38" y2="869.08" gradientUnits="userSpaceOnUse">
<stop stop-color="#03BFC0"/>
<stop offset="1" stop-color="#8C5F80"/>
</linearGradient>
<linearGradient id="paint9_linear_2_3457" x1="1245.68" y1="780.04" x2="1314.53" y2="871.169" gradientUnits="userSpaceOnUse">
<stop stop-color="#03BFC0"/>
<stop offset="1" stop-color="#8C5F80"/>
</linearGradient>
<linearGradient id="paint10_linear_2_3457" x1="1243.88" y1="777.47" x2="1317.6" y2="871.895" gradientUnits="userSpaceOnUse">
<stop stop-color="#03BFC0"/>
<stop offset="1" stop-color="#8C5F80"/>
</linearGradient>
<linearGradient id="paint11_linear_2_3457" x1="1240.53" y1="776.522" x2="1319.19" y2="874.122" gradientUnits="userSpaceOnUse">
<stop stop-color="#03BFC0"/>
<stop offset="1" stop-color="#8C5F80"/>
</linearGradient>
<linearGradient id="paint12_linear_2_3457" x1="1237.44" y1="774.624" x2="1321.15" y2="875.279" gradientUnits="userSpaceOnUse">
<stop stop-color="#03BFC0"/>
<stop offset="1" stop-color="#8C5F80"/>
</linearGradient>
<linearGradient id="paint13_linear_2_3457" x1="1235.56" y1="772.806" x2="1324.43" y2="876.407" gradientUnits="userSpaceOnUse">
<stop stop-color="#03BFC0"/>
<stop offset="1" stop-color="#8C5F80"/>
</linearGradient>
<linearGradient id="paint14_linear_2_3457" x1="1232.82" y1="771.327" x2="1327.86" y2="878.793" gradientUnits="userSpaceOnUse">
<stop stop-color="#03BFC0"/>
<stop offset="1" stop-color="#8C5F80"/>
</linearGradient>
<linearGradient id="paint15_linear_2_3457" x1="1228.82" y1="768.995" x2="1331.1" y2="881.188" gradientUnits="userSpaceOnUse">
<stop stop-color="#03BFC0"/>
<stop offset="1" stop-color="#8C5F80"/>
</linearGradient>
<linearGradient id="paint16_linear_2_3457" x1="1225.69" y1="766.334" x2="1335.37" y2="883.069" gradientUnits="userSpaceOnUse">
<stop stop-color="#03BFC0"/>
<stop offset="1" stop-color="#8C5F80"/>
</linearGradient>
<linearGradient id="paint17_linear_2_3457" x1="1221.87" y1="764.11" x2="1339.12" y2="885.183" gradientUnits="userSpaceOnUse">
<stop stop-color="#03BFC0"/>
<stop offset="1" stop-color="#8C5F80"/>
</linearGradient>
<linearGradient id="paint18_linear_2_3457" x1="1216.98" y1="762.21" x2="1342.92" y2="888.397" gradientUnits="userSpaceOnUse">
<stop stop-color="#03BFC0"/>
<stop offset="1" stop-color="#8C5F80"/>
</linearGradient>
<linearGradient id="paint19_linear_2_3457" x1="1212.83" y1="759.511" x2="1347.67" y2="890.568" gradientUnits="userSpaceOnUse">
<stop stop-color="#03BFC0"/>
<stop offset="1" stop-color="#8C5F80"/>
</linearGradient>
<linearGradient id="paint20_linear_2_3457" x1="1206.95" y1="755.821" x2="1352.9" y2="893.389" gradientUnits="userSpaceOnUse">
<stop stop-color="#03BFC0"/>
<stop offset="1" stop-color="#8C5F80"/>
</linearGradient>
<linearGradient id="paint21_linear_2_3457" x1="1202" y1="753.58" x2="1358.28" y2="896.399" gradientUnits="userSpaceOnUse">
<stop stop-color="#03BFC0"/>
<stop offset="1" stop-color="#8C5F80"/>
</linearGradient>
<linearGradient id="paint22_linear_2_3457" x1="1195.25" y1="749.537" x2="1364.18" y2="899.112" gradientUnits="userSpaceOnUse">
<stop stop-color="#03BFC0"/>
<stop offset="1" stop-color="#8C5F80"/>
</linearGradient>
<linearGradient id="paint23_linear_2_3457" x1="1188.82" y1="746.783" x2="1371.73" y2="903.646" gradientUnits="userSpaceOnUse">
<stop stop-color="#03BFC0"/>
<stop offset="1" stop-color="#8C5F80"/>
</linearGradient>
<linearGradient id="paint24_linear_2_3457" x1="1181.08" y1="743.343" x2="1378.29" y2="907.003" gradientUnits="userSpaceOnUse">
<stop stop-color="#03BFC0"/>
<stop offset="1" stop-color="#8C5F80"/>
</linearGradient>
<linearGradient id="paint25_linear_2_3457" x1="1172.86" y1="738.342" x2="1386.88" y2="910.052" gradientUnits="userSpaceOnUse">
<stop stop-color="#03BFC0"/>
<stop offset="1" stop-color="#8C5F80"/>
</linearGradient>
<linearGradient id="paint26_linear_2_3457" x1="1163.8" y1="734.644" x2="1396.09" y2="914.678" gradientUnits="userSpaceOnUse">
<stop stop-color="#03BFC0"/>
<stop offset="1" stop-color="#8C5F80"/>
</linearGradient>
<linearGradient id="paint27_linear_2_3457" x1="1153.29" y1="730.639" x2="1406.48" y2="919.993" gradientUnits="userSpaceOnUse">
<stop stop-color="#03BFC0"/>
<stop offset="1" stop-color="#8C5F80"/>
</linearGradient>
<linearGradient id="paint28_linear_2_3457" x1="1142.45" y1="725.99" x2="1417.04" y2="923.851" gradientUnits="userSpaceOnUse">
<stop stop-color="#03BFC0"/>
<stop offset="1" stop-color="#8C5F80"/>
</linearGradient>
<linearGradient id="paint29_linear_2_3457" x1="1129.44" y1="720.892" x2="1429.33" y2="928.786" gradientUnits="userSpaceOnUse">
<stop stop-color="#03BFC0"/>
<stop offset="1" stop-color="#8C5F80"/>
</linearGradient>
<linearGradient id="paint30_linear_2_3457" x1="1115.87" y1="715.205" x2="1443.97" y2="933.652" gradientUnits="userSpaceOnUse">
<stop stop-color="#03BFC0"/>
<stop offset="1" stop-color="#8C5F80"/>
</linearGradient>
<linearGradient id="paint31_linear_2_3457" x1="1101.28" y1="710.141" x2="1459.39" y2="938.689" gradientUnits="userSpaceOnUse">
<stop stop-color="#03BFC0"/>
<stop offset="1" stop-color="#8C5F80"/>
</linearGradient>
<linearGradient id="paint32_linear_2_3457" x1="1083.48" y1="704.4" x2="1477.01" y2="944.593" gradientUnits="userSpaceOnUse">
<stop stop-color="#03BFC0"/>
<stop offset="1" stop-color="#8C5F80"/>
</linearGradient>
<linearGradient id="paint33_linear_2_3457" x1="1064.88" y1="699.499" x2="1495.79" y2="950.409" gradientUnits="userSpaceOnUse">
<stop stop-color="#03BFC0"/>
<stop offset="1" stop-color="#8C5F80"/>
</linearGradient>
<linearGradient id="paint34_linear_2_3457" x1="1042.36" y1="693.567" x2="1516.34" y2="956.018" gradientUnits="userSpaceOnUse">
<stop stop-color="#03BFC0"/>
<stop offset="1" stop-color="#8C5F80"/>
</linearGradient>
<linearGradient id="paint35_linear_2_3457" x1="1018.64" y1="688.178" x2="1541.52" y2="962.668" gradientUnits="userSpaceOnUse">
<stop stop-color="#03BFC0"/>
<stop offset="1" stop-color="#8C5F80"/>
</linearGradient>
<linearGradient id="paint36_linear_2_3457" x1="992.081" y1="682.203" x2="1568.64" y2="967.973" gradientUnits="userSpaceOnUse">
<stop stop-color="#03BFC0"/>
<stop offset="1" stop-color="#8C5F80"/>
</linearGradient>
<linearGradient id="paint37_linear_2_3457" x1="961.639" y1="676.265" x2="1599.25" y2="973.3" gradientUnits="userSpaceOnUse">
<stop stop-color="#03BFC0"/>
<stop offset="1" stop-color="#8C5F80"/>
</linearGradient>
<linearGradient id="paint38_linear_2_3457" x1="927.161" y1="671.258" x2="1632.03" y2="978.255" gradientUnits="userSpaceOnUse">
<stop stop-color="#03BFC0"/>
<stop offset="1" stop-color="#8C5F80"/>
</linearGradient>
<linearGradient id="paint39_linear_2_3457" x1="888.521" y1="666.995" x2="1670.87" y2="983.682" gradientUnits="userSpaceOnUse">
<stop stop-color="#03BFC0"/>
<stop offset="1" stop-color="#8C5F80"/>
</linearGradient>
<linearGradient id="paint40_linear_2_3457" x1="845.733" y1="662.841" x2="1713.42" y2="986.834" gradientUnits="userSpaceOnUse">
<stop stop-color="#03BFC0"/>
<stop offset="1" stop-color="#8C5F80"/>
</linearGradient>
<linearGradient id="paint41_linear_2_3457" x1="797.374" y1="660.449" x2="1762.17" y2="989.965" gradientUnits="userSpaceOnUse">
<stop stop-color="#03BFC0"/>
<stop offset="1" stop-color="#8C5F80"/>
</linearGradient>
<linearGradient id="paint42_linear_2_3457" x1="742.983" y1="658.974" x2="1816.86" y2="990.892" gradientUnits="userSpaceOnUse">
<stop stop-color="#03BFC0"/>
<stop offset="1" stop-color="#8C5F80"/>
</linearGradient>
<linearGradient id="paint43_linear_2_3457" x1="681.146" y1="659.769" x2="1877.35" y2="989.999" gradientUnits="userSpaceOnUse">
<stop stop-color="#03BFC0"/>
<stop offset="1" stop-color="#8C5F80"/>
</linearGradient>
<linearGradient id="paint44_linear_2_3457" x1="613.357" y1="663.186" x2="1946.6" y2="986.686" gradientUnits="userSpaceOnUse">
<stop stop-color="#03BFC0"/>
<stop offset="1" stop-color="#8C5F80"/>
</linearGradient>
<linearGradient id="paint45_linear_2_3457" x1="536.731" y1="669.792" x2="2022.87" y2="979.954" gradientUnits="userSpaceOnUse">
<stop stop-color="#03BFC0"/>
<stop offset="1" stop-color="#8C5F80"/>
</linearGradient>
<linearGradient id="paint46_linear_2_3457" x1="450.276" y1="680.498" x2="2109.1" y2="969.795" gradientUnits="userSpaceOnUse">
<stop stop-color="#03BFC0"/>
<stop offset="1" stop-color="#8C5F80"/>
</linearGradient>
<linearGradient id="paint47_linear_2_3457" x1="354.935" y1="695.201" x2="2204.77" y2="953.7" gradientUnits="userSpaceOnUse">
<stop stop-color="#03BFC0"/>
<stop offset="1" stop-color="#8C5F80"/>
</linearGradient>
<linearGradient id="paint48_linear_2_3457" x1="247.999" y1="716.863" x2="2310.5" y2="933.172" gradientUnits="userSpaceOnUse">
<stop stop-color="#03BFC0"/>
<stop offset="1" stop-color="#8C5F80"/>
</linearGradient>
<linearGradient id="paint49_linear_2_3457" x1="131.006" y1="744.123" x2="2429.2" y2="904.822" gradientUnits="userSpaceOnUse">
<stop stop-color="#03BFC0"/>
<stop offset="1" stop-color="#8C5F80"/>
</linearGradient>
<linearGradient id="paint50_linear_2_3457" x1="1280" y1="-455.098" x2="1280" y2="2104.9" gradientUnits="userSpaceOnUse">
<stop stop-color="#03BFC0"/>
<stop offset="1" stop-color="#8C5F80"/>
</linearGradient>
</defs>
</svg>
