<svg width="127" height="117" viewBox="0 0 127 117" fill="none" xmlns="http://www.w3.org/2000/svg">
<g filter="url(#filter0_ddif_2_3562)">
<path fill-rule="evenodd" clip-rule="evenodd" d="M69.3536 42.115C64.2742 44.2277 54.1226 48.6004 38.8987 55.2332C36.4266 56.2163 35.1316 57.178 35.0137 58.1184C34.8145 59.7077 36.8047 60.3335 39.5149 61.1857C39.8835 61.3016 40.2655 61.4217 40.6571 61.549C43.3235 62.4157 46.9102 63.4297 48.7748 63.47C50.4662 63.5065 52.354 62.8092 54.4381 61.3781C68.6622 51.7764 76.0048 46.9233 76.4657 46.8186C76.791 46.7448 77.2416 46.652 77.547 46.9234C77.8523 47.1948 77.79 47.8467 77.79 47.8467C77.5928 48.6872 69.7805 55.9502 65.7376 59.7089C64.4773 60.8806 63.5832 61.7118 63.4005 61.9016C62.9911 62.3268 62.5738 62.7291 62.1728 63.1156C59.6957 65.5036 57.8381 67.2944 62.2757 70.2187C64.4082 71.6239 66.1146 72.786 67.817 73.9453C69.6762 75.2115 71.5306 76.4743 73.9299 78.0471C74.5412 78.4478 75.125 78.864 75.6936 79.2694C77.8573 80.8119 79.8012 82.1977 82.2027 81.9767C83.5981 81.8483 85.0395 80.5361 85.7716 76.6227C87.5016 67.3741 90.9022 47.3351 91.6881 39.0776C91.757 38.3541 91.6704 37.4282 91.6008 37.0218C91.5312 36.6153 91.3859 36.0362 90.8576 35.6075C90.2319 35.0998 89.2659 34.9928 88.8339 35.0004C86.8698 35.035 83.8562 36.0828 69.3536 42.115Z" stroke="#5062E5" stroke-opacity="0.2"/>
</g>
<g filter="url(#filter1_f_2_3562)">
<path fill-rule="evenodd" clip-rule="evenodd" d="M69.3536 42.115C64.2742 44.2277 54.1226 48.6004 38.8987 55.2332C36.4266 56.2163 35.1316 57.178 35.0137 58.1184C34.8145 59.7077 36.8047 60.3335 39.5149 61.1857C39.8835 61.3016 40.2655 61.4217 40.6571 61.549C43.3235 62.4157 46.9102 63.4297 48.7748 63.47C50.4662 63.5065 52.354 62.8092 54.4381 61.3781C68.6622 51.7764 76.0048 46.9233 76.4657 46.8186C76.791 46.7448 77.2416 46.652 77.547 46.9234C77.8523 47.1948 77.79 47.8467 77.79 47.8467C77.5928 48.6872 69.7805 55.9502 65.7376 59.7089C64.4773 60.8806 63.5832 61.7118 63.4005 61.9016C62.9911 62.3268 62.5738 62.7291 62.1728 63.1156C59.6957 65.5036 57.8381 67.2944 62.2757 70.2187C64.4082 71.6239 66.1146 72.786 67.817 73.9453C69.6762 75.2115 71.5306 76.4743 73.9299 78.0471C74.5412 78.4478 75.125 78.864 75.6936 79.2694C77.8573 80.8119 79.8012 82.1977 82.2027 81.9767C83.5981 81.8483 85.0395 80.5361 85.7716 76.6227C87.5016 67.3741 90.9022 47.3351 91.6881 39.0776C91.757 38.3541 91.6704 37.4282 91.6008 37.0218C91.5312 36.6153 91.3859 36.0362 90.8576 35.6075C90.2319 35.0998 89.2659 34.9928 88.8339 35.0004C86.8698 35.035 83.8562 36.0828 69.3536 42.115Z" stroke="#5062E5" stroke-width="1.5"/>
</g>
<g filter="url(#filter2_f_2_3562)">
<path fill-rule="evenodd" clip-rule="evenodd" d="M69.3536 42.115C64.2742 44.2277 54.1226 48.6004 38.8987 55.2332C36.4266 56.2163 35.1316 57.178 35.0137 58.1184C34.8145 59.7077 36.8047 60.3335 39.5149 61.1857C39.8835 61.3016 40.2655 61.4217 40.6571 61.549C43.3235 62.4157 46.9102 63.4297 48.7748 63.47C50.4662 63.5065 52.354 62.8092 54.4381 61.3781C68.6622 51.7764 76.0048 46.9233 76.4657 46.8186C76.791 46.7448 77.2416 46.652 77.547 46.9234C77.8523 47.1948 77.79 47.8467 77.79 47.8467C77.5928 48.6872 69.7805 55.9502 65.7376 59.7089C64.4773 60.8806 63.5832 61.7118 63.4005 61.9016C62.9911 62.3268 62.5738 62.7291 62.1728 63.1156C59.6957 65.5036 57.8381 67.2944 62.2757 70.2187C64.4082 71.6239 66.1146 72.786 67.817 73.9453C69.6762 75.2115 71.5306 76.4743 73.9299 78.0471C74.5412 78.4478 75.125 78.864 75.6936 79.2694C77.8573 80.8119 79.8012 82.1977 82.2027 81.9767C83.5981 81.8483 85.0395 80.5361 85.7716 76.6227C87.5016 67.3741 90.9022 47.3351 91.6881 39.0776C91.757 38.3541 91.6704 37.4282 91.6008 37.0218C91.5312 36.6153 91.3859 36.0362 90.8575 35.6075C90.2319 35.0998 89.2659 34.9928 88.8339 35.0004C86.8698 35.035 83.8562 36.0828 69.3536 42.115Z" stroke="white"/>
</g>
<defs>
<filter id="filter0_ddif_2_3562" x="0.00935364" y="0.00935364" width="126.695" height="116.981" filterUnits="userSpaceOnUse" color-interpolation-filters="sRGB">
<feFlood flood-opacity="0" result="BackgroundImageFix"/>
<feColorMatrix in="SourceAlpha" type="matrix" values="0 0 0 0 0 0 0 0 0 0 0 0 0 0 0 0 0 0 127 0" result="hardAlpha"/>
<feOffset/>
<feGaussianBlur stdDeviation="6.63282"/>
<feColorMatrix type="matrix" values="0 0 0 0 0.0382353 0 0 0 0 0.0647059 0 0 0 0 0.261765 0 0 0 0.6 0"/>
<feBlend mode="multiply" in2="BackgroundImageFix" result="effect1_dropShadow_2_3562"/>
<feColorMatrix in="SourceAlpha" type="matrix" values="0 0 0 0 0 0 0 0 0 0 0 0 0 0 0 0 0 0 127 0" result="hardAlpha"/>
<feOffset/>
<feGaussianBlur stdDeviation="17.2453"/>
<feColorMatrix type="matrix" values="0 0 0 0 0.0764706 0 0 0 0 0.129412 0 0 0 0 0.523529 0 0 0 0.6 0"/>
<feBlend mode="color-dodge" in2="effect1_dropShadow_2_3562" result="effect2_dropShadow_2_3562"/>
<feBlend mode="normal" in="SourceGraphic" in2="effect2_dropShadow_2_3562" result="shape"/>
<feColorMatrix in="SourceAlpha" type="matrix" values="0 0 0 0 0 0 0 0 0 0 0 0 0 0 0 0 0 0 127 0" result="hardAlpha"/>
<feOffset/>
<feGaussianBlur stdDeviation="0.5"/>
<feComposite in2="hardAlpha" operator="arithmetic" k2="-1" k3="1"/>
<feColorMatrix type="matrix" values="0 0 0 0 1 0 0 0 0 1 0 0 0 0 1 0 0 0 0.5 0"/>
<feBlend mode="normal" in2="shape" result="effect3_innerShadow_2_3562"/>
<feGaussianBlur stdDeviation="0.05" result="effect4_foregroundBlur_2_3562"/>
</filter>
<filter id="filter1_f_2_3562" x="34.15" y="34.15" width="58.4133" height="48.7" filterUnits="userSpaceOnUse" color-interpolation-filters="sRGB">
<feFlood flood-opacity="0" result="BackgroundImageFix"/>
<feBlend mode="normal" in="SourceGraphic" in2="BackgroundImageFix" result="shape"/>
<feGaussianBlur stdDeviation="0.05" result="effect1_foregroundBlur_2_3562"/>
</filter>
<filter id="filter2_f_2_3562" x="34.4" y="34.4" width="57.9133" height="48.2" filterUnits="userSpaceOnUse" color-interpolation-filters="sRGB">
<feFlood flood-opacity="0" result="BackgroundImageFix"/>
<feBlend mode="normal" in="SourceGraphic" in2="BackgroundImageFix" result="shape"/>
<feGaussianBlur stdDeviation="0.05" result="effect1_foregroundBlur_2_3562"/>
</filter>
</defs>
</svg>
