<svg width="381" height="381" viewBox="0 0 381 381" fill="none" xmlns="http://www.w3.org/2000/svg">
<g style="mix-blend-mode:hard-light" filter="url(#filter0_f_2_3541)">
<path d="M257.536 216.167C250.274 214.608 244.53 217.973 239.443 220.911C234.234 223.938 224.327 231.957 218.649 229.904C189.579 217.961 162.237 192.573 150.401 163.45C148.315 157.663 156.314 147.716 159.326 142.457C162.248 137.366 165.55 131.579 164.045 124.279C162.684 117.719 145.08 95.3693 138.855 89.2577C134.75 85.2206 130.545 83.0003 126.228 82.6414C109.997 81.9461 91.8696 103.556 88.6904 108.725C80.7255 119.749 80.7701 134.417 88.8242 152.202C108.234 199.974 181.647 272.069 229.704 292.165C238.572 296.303 246.683 298.378 253.967 298.378C261.095 298.378 267.443 296.392 272.898 292.456C277.014 290.09 299.559 271.105 298.967 254.474C298.611 250.235 296.391 245.997 292.397 241.892C286.318 235.624 264.062 217.535 257.536 216.167Z" stroke="#3F3EE3" stroke-width="4.438"/>
</g>
<g style="mix-blend-mode:hard-light" filter="url(#filter1_f_2_3541)">
<path d="M257.536 216.167C250.274 214.608 244.53 217.973 239.443 220.911C234.234 223.938 224.327 231.957 218.649 229.904C189.579 217.961 162.237 192.573 150.401 163.45C148.315 157.663 156.314 147.716 159.326 142.457C162.248 137.366 165.55 131.579 164.045 124.279C162.684 117.719 145.08 95.3693 138.855 89.2577C134.75 85.2206 130.545 83.0003 126.228 82.6414C109.997 81.9461 91.8696 103.556 88.6904 108.725C80.7255 119.749 80.7701 134.417 88.8242 152.202C108.234 199.974 181.647 272.069 229.704 292.165C238.572 296.303 246.683 298.378 253.967 298.378C261.095 298.378 267.443 296.392 272.898 292.456C277.014 290.09 299.559 271.105 298.967 254.474C298.611 250.235 296.391 245.997 292.397 241.892C286.318 235.624 264.062 217.535 257.536 216.167Z" stroke="#4255E3" stroke-width="5.80354"/>
</g>
<g style="mix-blend-mode:hard-light" filter="url(#filter2_ddi_2_3541)">
<path d="M257.536 216.167C250.274 214.608 244.53 217.973 239.443 220.911C234.234 223.938 224.327 231.957 218.649 229.904C189.579 217.961 162.237 192.573 150.401 163.45C148.315 157.663 156.314 147.716 159.326 142.457C162.248 137.366 165.55 131.579 164.045 124.279C162.684 117.719 145.08 95.3693 138.855 89.2577C134.75 85.2206 130.545 83.0003 126.228 82.6414C109.997 81.9461 91.8696 103.556 88.6904 108.725C80.7255 119.749 80.7701 134.417 88.8242 152.202C108.234 199.974 181.647 272.069 229.704 292.165C238.572 296.303 246.683 298.378 253.967 298.378C261.095 298.378 267.443 296.392 272.898 292.456C277.014 290.09 299.559 271.105 298.967 254.474C298.611 250.235 296.391 245.997 292.397 241.892C286.318 235.624 264.062 217.535 257.536 216.167Z" stroke="#5062E5" stroke-opacity="0.2" stroke-width="4.438"/>
</g>
<g filter="url(#filter3_f_2_3541)">
<path d="M257.536 216.167C250.274 214.608 244.53 217.973 239.443 220.911C234.234 223.938 224.327 231.957 218.649 229.904C189.579 217.961 162.237 192.573 150.401 163.45C148.315 157.663 156.314 147.716 159.326 142.457C162.248 137.366 165.55 131.579 164.045 124.279C162.684 117.719 145.08 95.3693 138.855 89.2577C134.75 85.2206 130.545 83.0003 126.228 82.6414C109.997 81.9461 91.8696 103.556 88.6904 108.725C80.7255 119.749 80.7701 134.417 88.8242 152.202C108.234 199.974 181.647 272.069 229.704 292.165C238.572 296.303 246.683 298.378 253.967 298.378C261.095 298.378 267.443 296.392 272.898 292.456C277.014 290.09 299.559 271.105 298.967 254.474C298.611 250.235 296.391 245.997 292.397 241.892C286.318 235.624 264.062 217.535 257.536 216.167Z" stroke="#5062E5" stroke-width="2.73108"/>
</g>
<g filter="url(#filter4_f_2_3541)">
<path d="M257.536 216.167C250.274 214.608 244.53 217.973 239.443 220.911C234.234 223.938 224.327 231.957 218.649 229.904C189.579 217.961 162.237 192.573 150.401 163.45C148.315 157.663 156.314 147.716 159.326 142.457C162.248 137.366 165.55 131.579 164.045 124.279C162.684 117.719 145.08 95.3693 138.855 89.2577C134.75 85.2206 130.545 83.0003 126.228 82.6414C109.997 81.9461 91.8696 103.556 88.6904 108.725C80.7255 119.749 80.7701 134.417 88.8242 152.202C108.234 199.974 181.647 272.069 229.704 292.165C238.572 296.303 246.683 298.378 253.967 298.378C261.095 298.378 267.443 296.392 272.898 292.456C277.014 290.09 299.559 271.105 298.967 254.474C298.611 250.235 296.391 245.997 292.397 241.892C286.318 235.624 264.062 217.535 257.536 216.167Z" stroke="white" stroke-width="1.36554"/>
</g>
<g filter="url(#filter5_b_2_3541)">
<path d="M257.471 215.98C250.212 214.423 244.469 217.783 239.384 220.717C234.176 223.74 224.274 231.747 218.598 229.698C189.538 217.772 162.207 192.419 150.376 163.337C148.291 157.558 156.286 147.625 159.297 142.373C162.218 137.289 165.519 131.511 164.014 124.221C162.653 117.67 145.057 95.3517 138.835 89.2486C134.731 85.2172 130.527 82.9997 126.212 82.6414C109.987 81.9471 91.8658 103.526 88.6878 108.689C80.7259 119.697 80.7712 134.344 88.8223 152.105C108.225 199.81 181.61 271.804 229.649 291.871C238.514 296.003 246.621 298.075 253.903 298.075C261.028 298.075 267.374 296.093 272.827 292.162C276.941 289.799 299.477 270.841 298.886 254.233C298.529 250 296.311 245.768 292.318 241.669C286.241 235.409 263.994 217.346 257.471 215.98Z" fill="#1E33D0" fill-opacity="0.01"/>
</g>
<defs>
<filter id="filter0_f_2_3541" x="0.937149" y="0.812454" width="379.855" height="379.377" filterUnits="userSpaceOnUse" color-interpolation-filters="sRGB">
<feFlood flood-opacity="0" result="BackgroundImageFix"/>
<feBlend mode="normal" in="SourceGraphic" in2="BackgroundImageFix" result="shape"/>
<feGaussianBlur stdDeviation="39.7969" result="effect1_foregroundBlur_2_3541"/>
</filter>
<filter id="filter1_f_2_3541" x="53.3169" y="53.1914" width="275.095" height="274.619" filterUnits="userSpaceOnUse" color-interpolation-filters="sRGB">
<feFlood flood-opacity="0" result="BackgroundImageFix"/>
<feBlend mode="normal" in="SourceGraphic" in2="BackgroundImageFix" result="shape"/>
<feGaussianBlur stdDeviation="13.2656" result="effect1_foregroundBlur_2_3541"/>
</filter>
<filter id="filter2_ddi_2_3541" x="46.0403" y="72.4469" width="289.648" height="289.171" filterUnits="userSpaceOnUse" color-interpolation-filters="sRGB">
<feFlood flood-opacity="0" result="BackgroundImageFix"/>
<feColorMatrix in="SourceAlpha" type="matrix" values="0 0 0 0 0 0 0 0 0 0 0 0 0 0 0 0 0 0 127 0" result="hardAlpha"/>
<feOffset dy="17.2453"/>
<feGaussianBlur stdDeviation="6.63282"/>
<feColorMatrix type="matrix" values="0 0 0 0 0.0382353 0 0 0 0 0.0647059 0 0 0 0 0.261765 0 0 0 0.7 0"/>
<feBlend mode="multiply" in2="BackgroundImageFix" result="effect1_dropShadow_2_3541"/>
<feColorMatrix in="SourceAlpha" type="matrix" values="0 0 0 0 0 0 0 0 0 0 0 0 0 0 0 0 0 0 127 0" result="hardAlpha"/>
<feOffset dy="26.5313"/>
<feGaussianBlur stdDeviation="17.2453"/>
<feColorMatrix type="matrix" values="0 0 0 0 0.0764706 0 0 0 0 0.129412 0 0 0 0 0.523529 0 0 0 1 0"/>
<feBlend mode="color-dodge" in2="effect1_dropShadow_2_3541" result="effect2_dropShadow_2_3541"/>
<feBlend mode="normal" in="SourceGraphic" in2="effect2_dropShadow_2_3541" result="shape"/>
<feColorMatrix in="SourceAlpha" type="matrix" values="0 0 0 0 0 0 0 0 0 0 0 0 0 0 0 0 0 0 127 0" result="hardAlpha"/>
<feOffset dx="-1.72453" dy="3.44906"/>
<feGaussianBlur stdDeviation="0.862266"/>
<feComposite in2="hardAlpha" operator="arithmetic" k2="-1" k3="1"/>
<feColorMatrix type="matrix" values="0 0 0 0 1 0 0 0 0 1 0 0 0 0 1 0 0 0 0.5 0"/>
<feBlend mode="normal" in2="shape" result="effect3_innerShadow_2_3541"/>
</filter>
<filter id="filter3_f_2_3541" x="80.7017" y="80.577" width="220.326" height="219.848" filterUnits="userSpaceOnUse" color-interpolation-filters="sRGB">
<feFlood flood-opacity="0" result="BackgroundImageFix"/>
<feBlend mode="normal" in="SourceGraphic" in2="BackgroundImageFix" result="shape"/>
<feGaussianBlur stdDeviation="0.341384" result="effect1_foregroundBlur_2_3541"/>
</filter>
<filter id="filter4_f_2_3541" x="81.612" y="81.4862" width="218.505" height="218.029" filterUnits="userSpaceOnUse" color-interpolation-filters="sRGB">
<feFlood flood-opacity="0" result="BackgroundImageFix"/>
<feBlend mode="normal" in="SourceGraphic" in2="BackgroundImageFix" result="shape"/>
<feGaussianBlur stdDeviation="0.22759" result="effect1_foregroundBlur_2_3541"/>
</filter>
<filter id="filter5_b_2_3541" x="66.75" y="66.625" width="248.148" height="247.449" filterUnits="userSpaceOnUse" color-interpolation-filters="sRGB">
<feFlood flood-opacity="0" result="BackgroundImageFix"/>
<feGaussianBlur in="BackgroundImageFix" stdDeviation="8"/>
<feComposite in2="SourceAlpha" operator="in" result="effect1_backgroundBlur_2_3541"/>
<feBlend mode="normal" in="SourceGraphic" in2="effect1_backgroundBlur_2_3541" result="shape"/>
</filter>
</defs>
</svg>
